<svg width="292" height="250" viewBox="0 0 292 250" fill="none" xmlns="http://www.w3.org/2000/svg">
<rect x="110.108" y="30.9678" width="79.9669" height="163.364" rx="8" transform="rotate(-20.2478 110.108 30.9678)" fill="#F18A69"/>
<rect x="110.008" y="30.6719" width="76.7356" height="160.292" rx="8" transform="rotate(-20.2478 110.008 30.6719)" fill="url(#paint0_linear_1364_3547)"/>
<g filter="url(#filter0_i_1364_3547)">
<rect x="154.085" y="110.744" width="49.4518" height="47.7466" rx="23.8733" transform="rotate(-20.2478 154.085 110.744)" fill="#F18A69"/>
</g>
<g filter="url(#filter1_i_1364_3547)">
<rect x="130.479" y="46.7487" width="49.4518" height="47.7466" rx="23.8733" transform="rotate(-20.2478 130.479 46.7487)" fill="#F18A69"/>
</g>
<mask id="mask0_1364_3547" style="mask-type:alpha" maskUnits="userSpaceOnUse" x="127" y="25" width="70" height="71">
<path d="M148.732 60.918C149.793 60.5267 150.965 60.5728 151.992 61.0462C153.019 61.5196 153.816 62.3815 154.207 63.4423C154.598 64.503 154.552 65.6758 154.079 66.7026C153.605 67.7293 152.743 68.526 151.683 68.9173C149.443 69.7435 147.024 68.6061 146.208 66.393C145.816 65.3322 145.862 64.1595 146.336 63.1327C146.809 62.1059 147.671 61.3093 148.732 60.918ZM172.73 52.0657C173.791 51.6744 174.963 51.7206 175.99 52.1939C177.017 52.6673 177.814 53.5292 178.205 54.59C178.596 55.6508 178.55 56.8235 178.077 57.8503C177.603 58.8771 176.741 59.6737 175.681 60.065C174.62 60.4563 173.447 60.4102 172.42 59.9368C171.393 59.4634 170.597 58.6015 170.206 57.5407C169.814 56.48 169.86 55.3072 170.334 54.2804C170.807 53.2537 171.669 52.457 172.73 52.0657ZM131.626 41.4795L173.115 26.1749C176.368 24.9749 180.018 26.6578 181.218 29.9108L196.523 71.4005C197.102 72.9704 197.034 74.7061 196.333 76.2257C195.632 77.7454 194.357 78.9244 192.787 79.5035L151.297 94.8081C148.044 96.0081 144.394 94.3252 143.194 91.0722L127.89 49.5825C127.31 48.0126 127.379 46.2769 128.079 44.7573C128.78 43.2376 130.056 42.0586 131.626 41.4795ZM154.338 39.16C148.68 41.2469 144.083 45.4958 141.559 50.9719C139.034 56.448 138.788 62.7027 140.875 68.3602C142.962 74.0176 147.211 78.6143 152.687 81.1391C158.163 83.6639 164.417 83.9099 170.075 81.823C175.732 79.7361 180.329 75.4872 182.854 70.0111C185.379 64.535 185.625 58.2803 183.538 52.6228C181.451 46.9654 177.202 42.3687 171.726 39.8439C166.25 37.3191 159.995 37.0731 154.338 39.16Z" fill="#F6B19B"/>
</mask>
<g mask="url(#mask0_1364_3547)">
<rect x="134.569" y="48.9837" width="43.0833" height="42.7764" rx="21.3882" transform="rotate(-20.2478 134.569 48.9837)" fill="#9C5139"/>
</g>
<mask id="mask1_1364_3547" style="mask-type:alpha" maskUnits="userSpaceOnUse" x="151" y="89" width="70" height="71">
<path d="M172.338 124.912C173.399 124.521 174.571 124.567 175.598 125.04C176.625 125.514 177.422 126.375 177.813 127.436C178.204 128.497 178.158 129.67 177.685 130.697C177.211 131.723 176.349 132.52 175.289 132.911C173.049 133.737 170.63 132.6 169.814 130.387C169.422 129.326 169.468 128.153 169.942 127.127C170.415 126.1 171.277 125.303 172.338 124.912ZM196.336 116.06C197.397 115.668 198.569 115.715 199.596 116.188C200.623 116.661 201.419 117.523 201.811 118.584C202.202 119.645 202.156 120.817 201.683 121.844C201.209 122.871 200.347 123.668 199.286 124.059C198.226 124.45 197.053 124.404 196.026 123.931C194.999 123.457 194.203 122.595 193.811 121.535C193.42 120.474 193.466 119.301 193.94 118.274C194.413 117.248 195.275 116.451 196.336 116.06ZM155.231 105.473L196.721 90.1689C199.974 88.9689 203.624 90.6517 204.824 93.9048L220.129 135.394C220.708 136.964 220.64 138.7 219.939 140.22C219.238 141.739 217.963 142.918 216.393 143.497L174.903 158.802C171.65 160.002 168 158.319 166.8 155.066L151.496 113.576C150.916 112.007 150.985 110.271 151.685 108.751C152.386 107.232 153.662 106.053 155.231 105.473ZM177.943 103.154C172.286 105.241 167.689 109.49 165.165 114.966C162.64 120.442 162.394 126.697 164.481 132.354C166.568 138.012 170.816 142.608 176.293 145.133C181.769 147.658 188.023 147.904 193.681 145.817C199.338 143.73 203.935 139.481 206.46 134.005C208.985 128.529 209.231 122.274 207.144 116.617C205.057 110.959 200.808 106.363 195.332 103.838C189.856 101.313 183.601 101.067 177.943 103.154Z" fill="#F6B19B"/>
</mask>
<g mask="url(#mask1_1364_3547)">
<rect x="158.508" y="112.348" width="43.0833" height="42.7764" rx="21.3882" transform="rotate(-20.2478 158.508 112.348)" fill="#9C5139"/>
</g>
<path d="M131.611 58.2369C130.969 58.3098 130.373 58.6008 129.904 59.1765L111.87 79.8816C110.4 81.5692 110.613 84.1449 112.34 85.5633C113.986 86.915 116.403 86.7116 117.803 85.1035L136.015 64.1947C137.266 62.6599 136.364 60.6379 134.836 59.3831C133.881 58.5993 132.681 58.1155 131.611 58.2369ZM103.164 72.2526C101.531 70.9112 99.0906 71.9565 97.7536 73.5974C96.4143 75.241 97.5413 76.1875 99.1774 77.5311L146.822 119.21C148.456 120.551 151.412 120.41 152.749 118.769C154.088 117.126 153.881 113.899 152.245 112.556L103.164 72.2526ZM103.853 78.7963C101.956 77.2386 99.1578 77.5416 97.6329 79.4697L84.331 96.289C83.6188 97.1895 83.9885 98.0819 84.1023 99.2263L86.0645 117.282C86.1805 118.449 85.0227 120.518 84.2836 121.425L80.284 125.208C77.7828 128.278 78.4886 134.796 81.5694 137.326L93.7671 147.342C96.1529 149.297 102.133 149.549 104.88 146.221L108.73 141.496C109.468 140.59 110.533 140.015 111.692 139.898L130.263 138.025C131.443 137.906 132.526 137.312 133.265 136.378L146.596 119.524C148.092 117.632 147.799 114.883 145.937 113.354L103.853 78.7963ZM156.056 78.3101C155.413 78.3832 154.818 78.6741 154.349 79.2498L136.739 100.285C135.321 101.978 135.556 104.51 137.26 105.91C138.93 107.281 141.387 107.05 142.776 105.391L160.46 84.268C161.711 82.7331 160.556 80.219 159.028 78.9642C158.073 78.1802 157.126 78.1885 156.056 78.3101ZM89.5286 140.534C88.5937 139.766 87.2193 139.891 86.4357 140.815L54.7288 175.873C53.9215 176.825 54.1719 178.367 55.135 179.158C56.0699 179.926 58.7009 180.265 59.4846 179.341L89.8125 143.709C90.6198 142.757 90.4917 141.325 89.5286 140.534Z" fill="#62A382"/>
<path d="M131.328 56.5145C130.692 56.5863 130.101 56.8729 129.637 57.4402L111.775 77.8415C110.319 79.5044 110.531 82.0428 112.243 83.4411C113.874 84.7735 116.267 84.5736 117.655 82.9891L135.692 62.387C136.931 60.8747 136.037 58.8818 134.523 57.6448C133.577 56.8722 132.388 56.3951 131.328 56.5145ZM103.116 71.1121C101.497 69.7898 99.1137 70.0284 97.7895 71.6452C96.463 73.2648 96.7022 75.6533 98.3234 76.9778L146.955 116.708C148.574 118.03 150.957 117.792 152.281 116.175C153.608 114.555 153.369 112.167 151.747 110.842L151.656 110.768L103.214 71.1922L103.116 71.1121ZM103.556 76.5436C101.829 75.1327 99.2817 75.4065 97.894 77.1522L84.4076 94.1176C83.7595 94.9329 83.455 95.9689 83.5588 97.0052L85.4336 115.731C85.5394 116.788 85.2209 117.843 84.5482 118.664L80.6444 123.431C78.1672 126.455 78.7174 131.954 81.77 134.447L93.8562 144.321C96.8839 146.795 102.388 146.243 104.866 143.219L108.771 138.45C109.442 137.63 110.412 137.11 111.467 137.004L130.158 135.133C131.233 135.025 132.218 134.487 132.89 133.642L146.403 116.644C147.765 114.931 147.497 112.442 145.802 111.058L103.556 76.5436ZM155.549 76.3024C154.913 76.3743 154.323 76.6609 153.858 77.2282L136.417 97.9546C135.013 99.6234 135.246 102.119 136.935 103.499C138.59 104.85 141.023 104.623 142.399 102.988L159.914 82.175C161.152 80.6626 160.258 78.6698 158.744 77.4328C157.798 76.6599 156.609 76.1828 155.549 76.3024ZM89.6595 137.614C88.7316 136.856 87.3676 136.98 86.5922 137.894L54.4788 175.727C53.6826 176.665 53.8111 178.074 54.764 178.853C55.6919 179.611 57.0559 179.486 57.8313 178.573L89.9446 140.739C90.7409 139.801 90.6124 138.393 89.6595 137.614Z" fill="url(#paint1_linear_1364_3547)"/>
<g filter="url(#filter2_f_1364_3547)">
<ellipse cx="130.441" cy="209.738" rx="82.1218" ry="7.29735" transform="rotate(4.51406 130.441 209.738)" fill="#868AEF" fill-opacity="0.5"/>
</g>
<path d="M101 185.355C101 172.929 90.9264 162.855 78.5 162.855H22.5C10.0736 162.855 0 172.929 0 185.355C0 197.782 10.0736 207.855 22.5 207.855H78.5C90.9264 207.855 101 197.782 101 185.355Z" fill="#DBDDFF"/>
<path d="M87.889 154.645L84.5 170L63.5 179L87.889 154.645Z" fill="#DBDDFF"/>
<path d="M37.1406 179.503C37.1406 178.351 37.0606 177.511 36.7566 177.127C36.6126 176.927 36.3886 176.823 36.1246 176.823C35.8686 176.823 35.6446 176.927 35.4926 177.127C35.2046 177.511 35.1166 178.351 35.1166 179.503C35.1166 180.655 35.2046 181.495 35.4926 181.887C35.6446 182.071 35.8686 182.175 36.1246 182.175C36.3886 182.175 36.6126 182.071 36.7566 181.887C37.0606 181.495 37.1406 180.655 37.1406 179.503ZM34.2526 179.503C34.2526 178.191 34.3806 177.207 34.8446 176.639C35.1406 176.271 35.5886 176.071 36.1246 176.071C36.6686 176.071 37.1086 176.271 37.4126 176.639C37.8766 177.207 38.0046 178.191 38.0046 179.503C38.0046 180.815 37.8766 181.799 37.4126 182.367C37.1086 182.735 36.6686 182.919 36.1246 182.919C35.5886 182.919 35.1406 182.735 34.8446 182.367C34.3806 181.799 34.2526 180.815 34.2526 179.503ZM40.1326 176.071V183.327H39.2606V176.071H40.1326ZM46.9484 177.767V176.967H44.2924V176.199H47.8124V177.663C47.8124 180.431 46.7564 182.263 44.2524 182.895V182.079C45.5964 181.695 46.3884 180.823 46.7404 179.535C46.4204 179.639 45.9324 179.695 45.3324 179.695H44.2524V178.935H45.3644C46.0364 178.935 46.5724 178.879 46.8924 178.767C46.9324 178.447 46.9484 178.119 46.9484 177.767ZM49.9644 176.071V179.031H51.1004V179.791H49.9644V183.327H49.0924V176.071H49.9644ZM51.8121 182.839V182.119H52.3801V176.935H51.9001V176.199H55.1321V176.935H54.7081V180.007C54.7081 180.775 54.6761 181.543 54.5721 182.111C54.8521 182.103 55.1481 182.063 55.3721 181.991V182.671C55.0921 182.791 54.6841 182.839 54.3001 182.839H51.8121ZM53.1881 182.119H53.7881C53.8681 181.647 53.8921 181.055 53.8921 180.463V176.935H53.1881V182.119ZM54.9561 179.687V178.927H55.6521V176.119H56.4761V183.239H55.6521V179.687H54.9561ZM57.9321 183.327H57.1001V176.071H57.9321V183.327ZM60.7558 176.119V177.895H65.5158V178.647H59.8918V176.119H60.7558ZM59.4118 180.367V179.615H65.9478V180.367H59.4118ZM60.7558 181.047V182.607H65.6038V183.359H59.8918V181.047H60.7558ZM22.7639 189.623V188.919H18.0519V188.159H23.6359V189.855C23.6359 190.359 23.5879 190.943 23.4839 191.335H22.6359C22.7079 191.055 22.7479 190.679 22.7559 190.327C22.1799 190.447 21.3879 190.471 20.5559 190.471H18.0519V189.727H20.5719C21.3639 189.727 22.1719 189.719 22.7639 189.623ZM17.5719 192.663V191.911H19.7799V190.823H20.6519V191.911H24.1079V192.663H17.5719ZM18.9159 193.247V194.607H23.7639V195.359H18.0519V193.247H18.9159ZM26.8276 191.055C26.5476 191.607 25.8756 192.167 25.1716 192.431V191.623C25.8436 191.287 26.3876 190.631 26.3876 189.439V188.119H27.2436V189.415C27.2436 190.615 27.7876 191.127 28.4516 191.463V192.271C27.7716 192.047 27.1396 191.583 26.8276 191.055ZM29.0836 189.431V188.119H29.8996V192.975H29.0836V190.175H28.0276V189.431H29.0836ZM30.6196 193.119V188.071H31.4596V193.119H30.6196ZM31.5956 195.359H25.9716V192.895H26.8436V194.607H31.5956V195.359ZM39.0433 188.967H34.2273V190.167H38.9633V190.927H34.2273V192.159H39.1313V192.911H33.3553V188.199H39.0433V188.967ZM32.9793 195.007V194.255H39.4193V195.007H32.9793ZM44.8351 191.903C44.1231 191.903 43.6191 192.343 43.6191 193.047C43.6191 193.751 44.1231 194.183 44.8351 194.183C45.5391 194.183 46.0431 193.751 46.0431 193.047C46.0431 192.343 45.5391 191.903 44.8351 191.903ZM44.8351 194.951C43.5871 194.951 42.7231 194.247 42.7231 193.095C42.7231 192.295 43.1631 191.751 43.8591 191.519C43.2751 191.311 42.9071 190.759 42.9071 190.127C42.9071 189.175 43.6191 188.471 44.8351 188.471C46.0431 188.471 46.7551 189.175 46.7551 190.127C46.7551 190.759 46.3871 191.311 45.8031 191.519C46.5071 191.751 46.9471 192.295 46.9471 193.095C46.9471 194.247 46.0751 194.951 44.8351 194.951ZM44.8351 191.143C45.4431 191.143 45.8511 190.767 45.8511 190.191C45.8511 189.623 45.4431 189.247 44.8351 189.247C44.2111 189.247 43.8031 189.623 43.8031 190.191C43.8031 190.767 44.2111 191.143 44.8351 191.143ZM49.9248 190.463V188.967H48.1168V188.199H50.7808V190.415C50.7808 192.743 49.9888 194.343 48.0368 194.903V194.063C49.2208 193.647 49.9248 192.447 49.9248 190.463ZM54.0688 195.327H53.2208V191.719H52.4048V195.239H51.5728V188.119H52.4048V190.959H53.2208V188.071H54.0688V195.327ZM59.1726 189.639H63.1166V188.199H63.9886V192.591H61.5966V194.255H64.3646V195.007H57.9246V194.255H60.7326V192.591H58.3006V188.199H59.1726V189.639ZM63.1166 191.831V190.399H59.1726V191.831H63.1166ZM65.8203 189.959C65.8203 189.335 66.1083 188.823 66.5883 188.535C67.1483 188.183 67.8763 188.071 68.8363 188.071C69.7883 188.071 70.5163 188.183 71.0843 188.535C71.5563 188.823 71.8443 189.335 71.8443 189.959C71.8443 190.583 71.5563 191.087 71.0843 191.375C70.5163 191.727 69.7883 191.839 68.8363 191.839C67.8763 191.839 67.1483 191.727 66.5883 191.375C66.1083 191.087 65.8203 190.583 65.8203 189.959ZM66.6923 189.959C66.6923 190.279 66.8203 190.567 67.0683 190.735C67.4123 190.983 67.9883 191.079 68.8363 191.079C69.6763 191.079 70.2523 190.983 70.5963 190.735C70.8523 190.567 70.9803 190.279 70.9803 189.959C70.9803 189.623 70.8523 189.351 70.5963 189.167C70.2523 188.919 69.6763 188.839 68.8363 188.839C67.9883 188.839 67.4123 188.919 67.0683 189.167C66.8203 189.351 66.6923 189.623 66.6923 189.959ZM65.6043 193.463V192.703H72.0443V193.463H70.6603V195.407H69.8043V193.463H67.8763V195.407H67.0203V193.463H65.6043ZM74.9961 195.415H82.9961V187.415H74.9961V195.415Z" fill="#4B51E7"/>
<path d="M191 22.5C191 34.9264 201.074 45 213.5 45H269.5C281.926 45 292 34.9264 292 22.5C292 10.0736 281.926 3.8147e-06 269.5 3.8147e-06H213.5C201.074 3.8147e-06 191 10.0736 191 22.5Z" fill="#4B51E7"/>
<path d="M199 59.8554L207.5 37.8554L223.389 35.5002L199 59.8554Z" fill="#4B51E7"/>
<path d="M225.865 15.52C225.865 14.72 226.097 14.088 226.545 13.696C226.873 13.416 227.337 13.256 227.849 13.256C228.361 13.256 228.825 13.416 229.153 13.696C229.617 14.088 229.833 14.72 229.833 15.52C229.833 16.32 229.617 16.944 229.153 17.344C228.825 17.624 228.361 17.784 227.849 17.784C227.337 17.784 226.873 17.624 226.545 17.344C226.097 16.944 225.865 16.32 225.865 15.52ZM226.737 15.52C226.737 16.064 226.849 16.504 227.121 16.76C227.305 16.936 227.553 17.024 227.849 17.024C228.153 17.024 228.409 16.936 228.577 16.76C228.849 16.504 228.969 16.064 228.969 15.52C228.969 14.984 228.849 14.528 228.577 14.272C228.409 14.096 228.153 14.016 227.849 14.016C227.553 14.016 227.305 14.096 227.121 14.272C226.849 14.528 226.737 14.984 226.737 15.52ZM231.633 13.216V20.472H230.761V19.648C230.449 19.944 229.793 20.056 228.993 20.056H225.617V19.312H229.217C229.873 19.312 230.425 19.216 230.761 18.936V13.216H231.633ZM233.384 14.112V13.344H237.312V14.112H235.768V16.064C235.768 18 236.536 18.784 237.376 19.184V19.984C236.472 19.672 235.688 18.968 235.344 18.2C234.992 18.968 234.192 19.68 233.304 19.984V19.184C234.128 18.792 234.904 18 234.904 16.064V14.112H233.384ZM239.136 13.216V16.176H240.272V16.936H239.136V20.472H238.264V13.216H239.136ZM247.008 16.48H243.472V13.304H247.008V16.48ZM246.16 15.76V14.032H244.32V15.76H246.16ZM249.336 16.72H248.464V13.216H249.336V16.72ZM244.784 19.208V19.84H249.424V20.544H243.912V17.176H249.336V17.872H244.784V18.52H249.336V19.208H244.784ZM251.072 16.648C251.072 14.904 251.224 14.016 251.64 13.56C251.856 13.336 252.136 13.216 252.52 13.216C252.904 13.216 253.192 13.336 253.4 13.56C253.776 13.968 253.936 14.712 253.968 16.096H254.76V13.264H255.608V20.384H254.76V16.856H253.976C253.96 18.464 253.808 19.296 253.4 19.736C253.192 19.952 252.904 20.064 252.52 20.064C252.136 20.064 251.856 19.952 251.64 19.736C251.224 19.28 251.072 18.392 251.072 16.648ZM251.904 16.648C251.904 18.144 251.968 18.864 252.192 19.16C252.272 19.272 252.384 19.32 252.52 19.32C252.664 19.32 252.768 19.272 252.856 19.16C253.08 18.864 253.136 18.144 253.136 16.648C253.136 15.152 253.08 14.424 252.856 14.136C252.768 14.024 252.664 13.968 252.52 13.968C252.384 13.968 252.272 14.024 252.192 14.136C251.968 14.424 251.904 15.152 251.904 16.648ZM257.112 20.472H256.264V13.216H257.112V20.472ZM217.121 26.736C216.577 27.368 215.425 27.872 214.073 28.008V27.256C215.433 27.064 216.689 26.496 216.689 25.464V25.264H217.553V25.464C217.553 26.496 218.793 27.064 220.185 27.256V28.008C218.817 27.872 217.665 27.368 217.121 26.736ZM213.865 29.256V28.512H220.401V29.256H217.553V30.032H219.929V32.544H214.345V30.032H216.697V29.256H213.865ZM219.057 31.816V30.768H215.209V31.816H219.057ZM224.641 28.648C224.641 27.496 224.561 26.656 224.257 26.272C224.113 26.072 223.889 25.968 223.625 25.968C223.369 25.968 223.145 26.072 222.993 26.272C222.705 26.656 222.617 27.496 222.617 28.648C222.617 29.8 222.705 30.64 222.993 31.032C223.145 31.216 223.369 31.32 223.625 31.32C223.889 31.32 224.113 31.216 224.257 31.032C224.561 30.64 224.641 29.8 224.641 28.648ZM221.753 28.648C221.753 27.336 221.881 26.352 222.345 25.784C222.641 25.416 223.089 25.216 223.625 25.216C224.169 25.216 224.609 25.416 224.913 25.784C225.313 26.272 225.465 27.064 225.497 28.104H226.761V25.216H227.633V32.472H226.761V28.856H225.505C225.489 30.064 225.353 30.976 224.913 31.512C224.609 31.88 224.169 32.064 223.625 32.064C223.089 32.064 222.641 31.88 222.345 31.512C221.881 30.944 221.753 29.96 221.753 28.648ZM229.368 27.088C229.368 26.416 229.584 25.904 229.976 25.576C230.304 25.312 230.752 25.168 231.272 25.168C231.8 25.168 232.24 25.312 232.568 25.576C232.96 25.904 233.176 26.416 233.176 27.088C233.176 27.752 232.96 28.264 232.568 28.592C232.24 28.864 231.8 29 231.272 29C230.752 29 230.304 28.864 229.976 28.592C229.584 28.264 229.368 27.752 229.368 27.088ZM230.216 27.088C230.216 27.488 230.336 27.8 230.552 28C230.736 28.16 230.976 28.256 231.272 28.256C231.568 28.256 231.816 28.16 231.992 28C232.208 27.8 232.328 27.488 232.328 27.088C232.328 26.688 232.208 26.376 231.992 26.176C231.816 26.008 231.568 25.92 231.272 25.92C230.976 25.92 230.736 26.008 230.552 26.176C230.336 26.376 230.216 26.688 230.216 27.088ZM235.328 29.264H234.456V25.216H235.328V29.264ZM232.64 32.552C232.128 32.36 231.584 31.912 231.32 31.448C231.016 31.928 230.312 32.384 229.584 32.552V31.792C230.328 31.536 230.872 30.928 230.872 29.952V29.696H231.744V29.952C231.744 30.792 232.136 31.4 232.64 31.736C233.136 31.4 233.552 30.792 233.552 29.952V29.696H234.416V29.952C234.416 30.928 234.944 31.528 235.704 31.792V32.552C234.968 32.384 234.264 31.936 233.96 31.448C233.704 31.912 233.184 32.344 232.64 32.552ZM240.304 28.808H237.048V25.304H240.592V26.064H237.92V28.064H240.528C241.184 28.064 241.632 27.968 241.944 27.744V25.216H242.816V26.76H243.872V27.52H242.816V29.024H241.944V28.44C241.64 28.696 241.12 28.808 240.304 28.808ZM241.944 30.28V29.432H242.816V32.544H237.464V29.432H238.328V30.28H241.944ZM241.944 31.024H238.328V31.808H241.944V31.024ZM248.096 31.984H244.88V25.304H245.744V31.224H248.256C248.936 31.224 249.48 31.072 249.8 30.792V25.216H250.672V32.472H249.8V31.496C249.496 31.808 248.856 31.984 248.096 31.984ZM255.647 31.984H252.503V25.344H255.999V26.112H253.367V31.224H255.807C256.471 31.224 256.999 31.08 257.303 30.808V25.216H258.175V28.176H259.311V28.936H258.175V32.472H257.303V31.528C257.007 31.816 256.383 31.984 255.647 31.984ZM261.703 32.56H269.703V24.56H261.703V32.56Z" fill="white"/>
<defs>
<filter id="filter0_i_1364_3547" x="160.865" y="100.41" width="49.3594" height="52.3497" filterUnits="userSpaceOnUse" color-interpolation-filters="sRGB">
<feFlood flood-opacity="0" result="BackgroundImageFix"/>
<feBlend mode="normal" in="SourceGraphic" in2="BackgroundImageFix" result="shape"/>
<feColorMatrix in="SourceAlpha" type="matrix" values="0 0 0 0 0 0 0 0 0 0 0 0 0 0 0 0 0 0 127 0" result="hardAlpha"/>
<feOffset dy="4"/>
<feGaussianBlur stdDeviation="5"/>
<feComposite in2="hardAlpha" operator="arithmetic" k2="-1" k3="1"/>
<feColorMatrix type="matrix" values="0 0 0 0 0 0 0 0 0 0 0 0 0 0 0 0 0 0 0.25 0"/>
<feBlend mode="normal" in2="shape" result="effect1_innerShadow_1364_3547"/>
</filter>
<filter id="filter1_i_1364_3547" x="137.259" y="36.4147" width="49.3594" height="52.3497" filterUnits="userSpaceOnUse" color-interpolation-filters="sRGB">
<feFlood flood-opacity="0" result="BackgroundImageFix"/>
<feBlend mode="normal" in="SourceGraphic" in2="BackgroundImageFix" result="shape"/>
<feColorMatrix in="SourceAlpha" type="matrix" values="0 0 0 0 0 0 0 0 0 0 0 0 0 0 0 0 0 0 127 0" result="hardAlpha"/>
<feOffset dy="4"/>
<feGaussianBlur stdDeviation="5"/>
<feComposite in2="hardAlpha" operator="arithmetic" k2="-1" k3="1"/>
<feColorMatrix type="matrix" values="0 0 0 0 0 0 0 0 0 0 0 0 0 0 0 0 0 0 0.25 0"/>
<feBlend mode="normal" in2="shape" result="effect1_innerShadow_1364_3547"/>
</filter>
<filter id="filter2_f_1364_3547" x="18.5723" y="170.007" width="223.738" height="79.4626" filterUnits="userSpaceOnUse" color-interpolation-filters="sRGB">
<feFlood flood-opacity="0" result="BackgroundImageFix"/>
<feBlend mode="normal" in="SourceGraphic" in2="BackgroundImageFix" result="shape"/>
<feGaussianBlur stdDeviation="15" result="effect1_foregroundBlur_1364_3547"/>
</filter>
<linearGradient id="paint0_linear_1364_3547" x1="148.376" y1="30.6719" x2="148.376" y2="190.964" gradientUnits="userSpaceOnUse">
<stop stop-color="#FBC4B3"/>
<stop offset="1" stop-color="#FF9A7A"/>
</linearGradient>
<linearGradient id="paint1_linear_1364_3547" x1="99.8281" y1="59.6681" x2="111.347" y2="174.72" gradientUnits="userSpaceOnUse">
<stop offset="0.000524755" stop-color="#8BF8C1"/>
<stop offset="1" stop-color="#5FD99B"/>
</linearGradient>
</defs>
</svg>
