<svg width="36" height="43" viewBox="0 0 36 43" fill="none" xmlns="http://www.w3.org/2000/svg">
<g id="Frame 81">
<path id="Vector" d="M17.7335 22.1523C16.331 21.9253 15.0722 21.1738 14.2343 20.0629C13.3963 18.9521 13.0477 17.573 13.2652 16.229C13.4827 14.8851 14.2484 13.6863 15.3939 12.8965C16.5395 12.1066 17.971 11.7904 19.3736 12.0174C20.7761 12.2443 22.0348 12.9959 22.8728 14.1067C23.7108 15.2175 24.0594 16.5966 23.8419 17.9406C23.7342 18.606 23.4908 19.2429 23.1255 19.8147C22.7603 20.3865 22.2804 20.8821 21.7131 21.2732C21.1459 21.6643 20.5025 21.9432 19.8197 22.094C19.1369 22.2449 18.428 22.2647 17.7335 22.1523ZM20.8496 2.89592C16.9224 2.26043 12.9142 3.14585 9.70666 5.35742C6.49913 7.56899 6.53456 11.3688 5.92561 15.132C4.8433 21.8203 7.10682 31.0137 10.5573 37.2506C12.4191 40.6158 16.9537 41.3496 19.7818 38.7433C25.0232 33.9129 32.2787 26.1693 33.361 19.481C33.9699 15.7178 32.9939 11.8564 30.6475 8.74608C28.3012 5.63578 24.7768 3.53142 20.8496 2.89592Z" fill="#353AA4"/>
<path id="Vector_2" d="M16.7286 21.4086C15.43 21.1985 14.2684 20.4788 13.4993 19.4078C12.7303 18.3368 12.4168 17.0023 12.6279 15.6978C12.839 14.3934 13.5573 13.2259 14.6249 12.4521C15.6924 11.6783 17.0218 11.3617 18.3204 11.5718C19.6191 11.782 20.7807 12.5017 21.5498 13.5727C22.3188 14.6437 22.6323 15.9782 22.4212 17.2826C22.3167 17.9285 22.0865 18.5476 21.7439 19.1045C21.4012 19.6614 20.9528 20.1452 20.4242 20.5284C19.8956 20.9115 19.2972 21.1864 18.6631 21.3375C18.029 21.4885 17.3717 21.5127 16.7286 21.4086ZM19.7531 2.71865C16.1168 2.13023 12.3947 3.01683 9.4055 5.18343C6.41634 7.35002 4.405 10.6191 3.81396 14.2716C2.76348 20.7632 6.81458 30.0742 9.96946 36.0962C11.6718 39.3455 15.8705 40.025 18.5107 37.4783C23.4038 32.7586 30.1846 25.2005 31.2351 18.7089C31.8262 15.0564 30.9485 11.3198 28.7952 8.32107C26.6419 5.32233 23.3893 3.30707 19.7531 2.71865Z" fill="url(#paint0_linear_1684_3741)"/>
</g>
<defs>
<linearGradient id="paint0_linear_1684_3741" x1="19.7531" y1="2.71865" x2="13.8884" y2="38.9608" gradientUnits="userSpaceOnUse">
<stop stop-color="#8A8DE6"/>
<stop offset="1" stop-color="#4B51E7"/>
</linearGradient>
</defs>
</svg>
