<svg width="40" height="43" viewBox="0 0 40 43" fill="none" xmlns="http://www.w3.org/2000/svg">
<g id="Frame 200">
<g id="Vector">
<path d="M32.2289 30.0567L6.94528 33.5423L3.47142 8.17332C3.40561 7.69273 3.53277 7.20559 3.82492 6.81907C4.11708 6.43255 4.55029 6.17831 5.02926 6.11228L33.9249 2.12875C34.4038 2.06272 34.8893 2.19031 35.2745 2.48345C35.6598 2.77659 35.9131 3.21126 35.979 3.69185L39.9491 32.685C40.1465 34.1267 39.765 35.5882 38.8886 36.7477C38.0121 37.9073 36.7125 38.67 35.2756 38.8681L9.99192 42.3537C8.555 42.5518 7.0985 42.169 5.94284 41.2896C4.78718 40.4102 4.02703 39.1061 3.8296 37.6644L3.33333 34.0402L32.2289 30.0567Z" fill="#353AA4"/>
<path d="M28.8002 28.6218L6.14217 31.698C4.6796 31.8965 3.33105 30.8859 3.13009 29.4407L0.0169889 7.05179C-0.0488787 6.57808 0.078393 6.09792 0.370806 5.71693C0.663218 5.33595 1.09682 5.08535 1.57622 5.02026L30.4976 1.09378C30.977 1.0287 31.4629 1.15446 31.8485 1.4434C32.2341 1.73234 32.4877 2.16079 32.5535 2.6345L36.5272 31.2124C36.7248 32.6336 36.343 34.074 35.4658 35.217C34.5885 36.36 33.2877 37.1118 31.8495 37.307L6.54331 40.7427C5.1051 40.9379 3.6473 40.5607 2.49061 39.6938C1.33392 38.827 0.573087 37.5417 0.375484 36.1205L0.242629 35.1651C0.041678 33.7199 1.06442 32.3873 2.52699 32.1888L28.8002 28.6218Z" fill="#1C254D"/>
<path d="M28.8002 28.6218L6.14217 31.698C4.6796 31.8965 3.33105 30.8859 3.13009 29.4407L0.0169889 7.05179C-0.0488787 6.57808 0.078393 6.09792 0.370806 5.71693C0.663218 5.33595 1.09682 5.08535 1.57622 5.02026L30.4976 1.09378C30.977 1.0287 31.4629 1.15446 31.8485 1.4434C32.2341 1.73234 32.4877 2.16079 32.5535 2.6345L36.5272 31.2124C36.7248 32.6336 36.343 34.074 35.4658 35.217C34.5885 36.36 33.2877 37.1118 31.8495 37.307L6.54331 40.7427C5.1051 40.9379 3.6473 40.5607 2.49061 39.6938C1.33392 38.827 0.573087 37.5417 0.375484 36.1205L0.242629 35.1651C0.041678 33.7199 1.06442 32.3873 2.52699 32.1888L28.8002 28.6218Z" fill="#474CBC"/>
<path d="M32.5739 2.78216C32.3722 1.33186 31.0154 0.32026 29.5486 0.526747L2.32814 4.35894C0.871363 4.56403 -0.143725 5.89396 0.0571031 7.33437L3.13921 29.4404C3.34064 30.8852 4.68896 31.8952 6.15115 31.6967L26.5993 28.9206C28.113 28.7151 29.4966 29.8083 29.8879 31.2677C30.5016 33.5571 31.8008 36.4039 34.4366 36.046C37.148 35.6779 36.6264 31.9271 36.6264 31.927L32.5739 2.78216Z" fill="url(#paint0_linear_1684_3751)"/>
</g>
</g>
<defs>
<linearGradient id="paint0_linear_1684_3751" x1="15.94" y1="2.36075" x2="20.7652" y2="37.9019" gradientUnits="userSpaceOnUse">
<stop stop-color="#9093EC"/>
<stop offset="1" stop-color="#4B51E7"/>
</linearGradient>
</defs>
</svg>
