<svg width="12" height="12" viewBox="0 0 12 12" fill="none" xmlns="http://www.w3.org/2000/svg">
<g id="Union">
<path d="M5.57886 8.99243H6.41136V4.79243H5.57886V8.99243Z" fill="#A5A5A5"/>
<path d="M5.57886 3.99743H6.41136V3.11243H5.57886V3.99743Z" fill="#A5A5A5"/>
<path fill-rule="evenodd" clip-rule="evenodd" d="M12 6C12 9.31371 9.31371 12 6 12C2.68629 12 0 9.31371 0 6C0 2.68629 2.68629 0 6 0C9.31371 0 12 2.68629 12 6ZM11.25 6C11.25 8.8995 8.8995 11.25 6 11.25C3.10051 11.25 0.75 8.8995 0.75 6C0.75 3.10051 3.10051 0.75 6 0.75C8.8995 0.75 11.25 3.10051 11.25 6Z" fill="#A5A5A5"/>
</g>
</svg>
