<svg width="28" height="13" viewBox="0 0 28 13" fill="none" xmlns="http://www.w3.org/2000/svg">
<rect x="0.25" y="0.25" width="27.5" height="12.5" rx="6.25" stroke="white" stroke-width="0.5"/>
<path d="M4.588 5.298C4.588 4.86 4.738 4.5 4.996 4.266C5.236 4.056 5.566 3.942 5.956 3.942C6.346 3.942 6.676 4.056 6.91 4.266C7 4.344 7.078 4.44 7.138 4.548H8.572V3.972H8.938V7.014H8.572V6.048H7.144C7.084 6.162 7 6.258 6.91 6.342C6.676 6.552 6.346 6.666 5.956 6.666C5.566 6.666 5.236 6.552 4.996 6.342C4.738 6.102 4.588 5.748 4.588 5.298ZM7.27 4.866C7.306 4.998 7.324 5.142 7.324 5.298C7.324 5.454 7.306 5.598 7.27 5.73H8.572V4.866H7.27ZM4.948 5.298C4.948 5.634 5.05 5.898 5.236 6.084C5.41 6.252 5.662 6.348 5.956 6.348C6.25 6.348 6.496 6.252 6.67 6.084C6.856 5.898 6.964 5.634 6.964 5.298C6.964 4.968 6.856 4.704 6.67 4.524C6.496 4.35 6.25 4.26 5.956 4.26C5.662 4.26 5.41 4.35 5.236 4.524C5.05 4.704 4.948 4.968 4.948 5.298ZM6.988 9.426C6.31 9.426 5.716 9.324 5.338 9.078C5.074 8.904 4.918 8.664 4.918 8.346C4.918 8.028 5.074 7.794 5.338 7.614C5.716 7.368 6.31 7.26 6.988 7.26C7.666 7.26 8.26 7.368 8.638 7.614C8.902 7.794 9.064 8.028 9.064 8.346C9.064 8.664 8.902 8.904 8.638 9.078C8.26 9.324 7.666 9.426 6.988 9.426ZM6.988 7.572C6.388 7.572 5.86 7.674 5.56 7.872C5.386 7.992 5.284 8.148 5.284 8.346C5.284 8.538 5.386 8.694 5.56 8.814C5.86 9.018 6.388 9.114 6.988 9.114C7.588 9.114 8.11 9.018 8.416 8.814C8.596 8.694 8.698 8.538 8.698 8.346C8.698 8.148 8.596 7.992 8.416 7.872C8.11 7.674 7.588 7.572 6.988 7.572ZM10.3478 5.268C10.3478 4.818 10.5158 4.47 10.7918 4.248C11.0258 4.05 11.3498 3.942 11.7218 3.942C12.0878 3.942 12.4058 4.05 12.6458 4.248C12.8858 4.44 13.0478 4.728 13.0838 5.1H14.3318V3.972H14.6978V6.726H14.3318V5.424H13.0838C13.0478 5.796 12.8918 6.09 12.6458 6.288C12.4058 6.486 12.0878 6.606 11.7218 6.606C11.3498 6.606 11.0258 6.486 10.7918 6.288C10.5158 6.066 10.3478 5.718 10.3478 5.268ZM10.7078 5.268C10.7078 5.598 10.8218 5.856 11.0198 6.03C11.1938 6.192 11.4398 6.282 11.7218 6.282C11.9978 6.282 12.2438 6.192 12.4178 6.03C12.6158 5.856 12.7298 5.598 12.7298 5.268C12.7298 4.938 12.6158 4.68 12.4178 4.506C12.2438 4.344 11.9978 4.26 11.7218 4.26C11.4398 4.26 11.1938 4.344 11.0198 4.506C10.8218 4.68 10.7078 4.938 10.7078 5.268ZM14.3318 7.902V7.17H14.6978V9.354H10.7678V7.17H11.1338V7.902H14.3318ZM14.3318 8.22H11.1338V9.042H14.3318V8.22ZM18.1059 4.356V4.044H22.1559V4.356H20.3079V4.458C20.3079 5.088 21.4059 5.484 22.2279 5.55V5.88C21.3879 5.802 20.4699 5.454 20.1279 4.956C19.7739 5.46 18.8499 5.82 18.0159 5.88V5.55C18.8319 5.508 19.9419 5.082 19.9419 4.458V4.356H18.1059ZM17.7339 6.834V6.516H22.5279V6.834H20.3079V7.56C21.0339 7.578 21.5679 7.692 21.8979 7.896C22.1499 8.04 22.2759 8.25 22.2759 8.514C22.2759 8.778 22.1499 8.988 21.8979 9.138C21.5439 9.36 20.9499 9.456 20.1399 9.456C19.3299 9.456 18.7359 9.36 18.3759 9.138C18.1239 8.988 18.0039 8.778 18.0039 8.514C18.0039 8.25 18.1239 8.04 18.3759 7.896C18.7059 7.692 19.2339 7.578 19.9419 7.56V6.834H17.7339ZM18.3699 8.514C18.3699 8.658 18.4419 8.784 18.5919 8.874C18.8679 9.054 19.3959 9.144 20.1399 9.144C20.8839 9.144 21.4119 9.054 21.6879 8.874C21.8439 8.784 21.9099 8.658 21.9099 8.514C21.9099 8.37 21.8439 8.25 21.6879 8.142C21.4119 7.974 20.8839 7.884 20.1399 7.884C19.3959 7.884 18.8679 7.974 18.5919 8.142C18.4419 8.25 18.3699 8.37 18.3699 8.514Z" fill="white"/>
</svg>
