<svg width="23" height="20" viewBox="0 0 23 20" fill="none" xmlns="http://www.w3.org/2000/svg">
<path d="M4.96688 0.519481C4.96688 0.23258 5.19766 0 5.48233 0H17.5181C17.8028 0 18.0336 0.232579 18.0336 0.51948V2.22222V17.7778V19.4805C18.0336 19.7674 17.8028 20 17.5181 20H5.48234C5.19766 20 4.96688 19.7674 4.96688 19.4805V17.7778V2.22222V0.519481Z" fill="#4B51E7"/>
<path d="M4.96688 2.22222C4.96258 2.22222 4.95829 2.22229 4.95402 2.22243V2.22222H4.96688Z" fill="#4B51E7"/>
<path d="M4.96688 17.7778H4.95402V17.7776C4.95829 17.7777 4.96258 17.7778 4.96688 17.7778Z" fill="#4B51E7"/>
<path d="M18.0464 17.7776C18.0421 17.7777 18.0379 17.7778 18.0336 17.7778H18.0464V17.7776Z" fill="#4B51E7"/>
<path d="M18.0464 2.22243C18.0421 2.22229 18.0379 2.22222 18.0336 2.22222H18.0464V2.22243Z" fill="#4B51E7"/>
<path d="M18.433 2.22222V17.7778H21.8737C22.1583 17.7778 22.3891 17.5452 22.3891 17.2583V2.7417C22.3891 2.4548 22.1583 2.22222 21.8737 2.22222H18.433Z" fill="#4B51E7"/>
<path d="M4.56744 2.22222V17.7778H1.12678C0.842103 17.7778 0.611328 17.5452 0.611328 17.2583V2.7417C0.611328 2.4548 0.842103 2.22222 1.12678 2.22222H4.56744Z" fill="#4B51E7"/>
</svg>
