<svg width="56" height="56" viewBox="0 0 56 56" fill="none" xmlns="http://www.w3.org/2000/svg">
<g filter="url(#filter0_d_1014_4429)">
<circle cx="28" cy="28" r="20" fill="white"/>
</g>
<path d="M35 21.798V30.7993C34.9995 30.8848 34.9813 30.9691 34.9466 31.0467C34.9119 31.1244 34.8615 31.1935 34.7987 31.2494C33.6846 32.2418 32.6193 32.5996 31.6035 32.5996C30.2247 32.5996 28.937 31.944 27.739 31.3357C25.803 30.3493 24.1201 29.4949 22.1667 31.0821V34.3999C22.1667 34.5591 22.1052 34.7117 21.9958 34.8242C21.8864 34.9368 21.738 35 21.5833 35C21.4286 35 21.2803 34.9368 21.1709 34.8242C21.0615 34.7117 21 34.5591 21 34.3999V21.798C21.0006 21.7125 21.0189 21.6281 21.0537 21.5505C21.0885 21.4728 21.1391 21.4038 21.202 21.3479C23.827 19.009 26.1829 20.207 28.2596 21.2639C30.2604 22.2825 31.9951 23.1632 34.0346 21.3479C34.1189 21.2727 34.2224 21.224 34.3328 21.2075C34.4432 21.191 34.5558 21.2074 34.6575 21.2547C34.7591 21.3021 34.8453 21.3785 34.9061 21.4747C34.9668 21.571 34.9994 21.6832 35 21.798Z" fill="#3D3D3D"/>
<defs>
<filter id="filter0_d_1014_4429" x="0" y="0" width="56" height="56" filterUnits="userSpaceOnUse" color-interpolation-filters="sRGB">
<feFlood flood-opacity="0" result="BackgroundImageFix"/>
<feColorMatrix in="SourceAlpha" type="matrix" values="0 0 0 0 0 0 0 0 0 0 0 0 0 0 0 0 0 0 127 0" result="hardAlpha"/>
<feOffset/>
<feGaussianBlur stdDeviation="4"/>
<feComposite in2="hardAlpha" operator="out"/>
<feColorMatrix type="matrix" values="0 0 0 0 0 0 0 0 0 0 0 0 0 0 0 0 0 0 0.25 0"/>
<feBlend mode="normal" in2="BackgroundImageFix" result="effect1_dropShadow_1014_4429"/>
<feBlend mode="normal" in="SourceGraphic" in2="effect1_dropShadow_1014_4429" result="shape"/>
</filter>
</defs>
</svg>
