<svg width="393" height="852" viewBox="0 0 393 852" fill="none" xmlns="http://www.w3.org/2000/svg">
<g clip-path="url(#clip0_1364_11021)">
<rect width="393" height="852" fill="white"/>
<g opacity="0.5">
<path fill-rule="evenodd" clip-rule="evenodd" d="M322.383 267.635C287.08 255.252 264.723 222.67 271.136 189.969C278.286 153.511 318.491 130.712 360.937 139.046C394.614 145.659 419.584 169.884 424.892 197.82L428.057 196.499C428.057 196.499 447.492 272.528 411.033 291.265C387.772 303.219 348.075 283.488 322.383 267.635ZM383.811 214.968L382.001 215.723C375.714 228.013 359.622 235.042 342.369 232.266L336.567 234.688C319.604 228.96 308.805 213.41 311.866 197.804C315.246 180.566 334.256 169.787 354.325 173.727C374.394 177.668 387.922 194.837 384.542 212.075C384.349 213.061 384.104 214.026 383.811 214.968Z" fill="#91C690"/>
<path fill-rule="evenodd" clip-rule="evenodd" d="M300.446 243.208C277.581 227.919 264.484 203.394 268.791 178.542C275.029 142.553 315.403 119.509 358.969 127.07C393.733 133.104 420.024 156.801 426.061 184.416C426.061 184.416 448.691 261.112 413.01 281.048C377.329 300.985 300.419 243.221 300.419 243.221L300.446 243.208ZM343.469 223.072C361.145 225.777 377.542 217.87 383.353 204.663C384.197 202.743 384.818 200.712 385.186 198.585C388.136 181.569 373.828 164.877 353.229 161.302C332.63 157.726 313.54 168.622 310.591 185.638C307.642 202.654 321.95 219.346 342.549 222.922C342.856 222.975 343.163 223.025 343.469 223.072Z" fill="url(#paint0_linear_1364_11021)"/>
<path fill-rule="evenodd" clip-rule="evenodd" d="M342.232 191.786C346.229 189.358 348.603 189.994 353.236 190.636C357.869 191.278 363.567 190.494 366.754 193.918C369.942 197.342 371.368 202.782 371.678 207.449C371.988 212.116 369.735 218.728 367.028 222.542C370.355 223.938 374.332 223.494 376.499 226.379C378.667 229.264 379.884 234.498 380.299 238.082C380.713 241.667 379.227 246.173 377.774 249.475C376.322 252.778 374.016 255.634 371.095 257.75L367.751 260.126C367.751 260.126 373.36 257.408 377.515 263.137C384.103 272.222 380.131 288.03 371.048 294.616L331.029 323.633C330.857 323.795 330.675 323.945 330.484 324.082C311.738 337.674 292.232 341.022 274.704 337.164C257.313 333.327 242.293 322.494 232.063 308.388C211.286 279.737 216.921 247.124 229.532 217.501C231.896 211.284 234.382 205.115 236.989 198.996C246.159 177.185 275.414 174.336 289.177 193.259L307.826 179.737C310.666 177.678 313.992 176.389 317.478 175.996C320.965 175.603 324.583 170.989 327.811 172.364C331.039 173.74 335.706 176.116 338.329 179.887C340.462 182.673 341.748 188.311 342.232 191.786Z" fill="url(#paint1_linear_1364_11021)"/>
<path fill-rule="evenodd" clip-rule="evenodd" d="M339.559 188.074C343.556 185.646 348.269 184.671 352.902 185.313C357.535 185.955 361.805 188.175 364.992 191.598C368.18 195.022 370.089 199.44 370.399 204.107C370.709 208.774 369.4 213.405 366.693 217.218C370.021 218.614 372.917 220.871 375.084 223.756C377.251 226.641 378.612 230.051 379.026 233.635C379.44 237.22 378.893 240.849 377.44 244.152C375.988 247.454 373.682 250.31 370.76 252.427L367.417 254.803C367.417 254.803 372.021 254.779 376.175 260.508C382.763 269.593 379.797 282.706 370.713 289.292L330.694 318.31C330.523 318.471 330.341 318.621 330.149 318.758C311.404 332.35 291.898 335.699 274.37 331.84C256.979 328.004 241.958 317.17 231.729 303.064C210.952 274.413 216.587 241.8 229.198 212.177C231.561 205.961 234.047 199.791 236.654 193.672C245.825 171.862 275.079 169.012 288.842 187.936L307.492 174.413C310.332 172.354 313.657 171.065 317.144 170.672C320.631 170.279 324.16 170.796 327.388 172.171C330.617 173.546 333.434 175.734 335.567 178.52C337.7 181.307 339.075 184.598 339.559 188.074Z" fill="url(#paint2_linear_1364_11021)"/>
</g>
<path d="M147.583 164C147.271 162.208 146 159.958 143.583 158.146C142.396 157.25 141.187 156.667 140 156.417V155.542C142.354 154.979 144.667 153.396 146.146 151.25C146.896 150.167 147.375 149.104 147.583 148H148.458C148.812 150.104 150.438 152.438 152.646 154C153.729 154.771 154.854 155.292 156 155.542V156.417C153.688 156.896 151 158.958 149.667 161.062C149 162.125 148.604 163.104 148.458 164H147.583Z" fill="#DBDDFF"/>
<path d="M158.792 175C158.635 174.104 158 172.979 156.792 172.073C156.198 171.625 155.594 171.333 155 171.208V170.771C156.177 170.49 157.333 169.698 158.073 168.625C158.448 168.083 158.688 167.552 158.792 167H159.229C159.406 168.052 160.219 169.219 161.323 170C161.865 170.385 162.427 170.646 163 170.771V171.208C161.844 171.448 160.5 172.479 159.833 173.531C159.5 174.062 159.302 174.552 159.229 175H158.792Z" fill="#ACAFF4"/>
</g>
<defs>
<linearGradient id="paint0_linear_1364_11021" x1="390.099" y1="143.702" x2="284.277" y2="306.39" gradientUnits="userSpaceOnUse">
<stop stop-color="#81FFFF"/>
<stop offset="1" stop-color="#8DDD9F"/>
</linearGradient>
<linearGradient id="paint1_linear_1364_11021" x1="202.828" y1="159.46" x2="446.446" y2="341.065" gradientUnits="userSpaceOnUse">
<stop stop-color="#587E9B"/>
<stop offset="1" stop-color="#434595"/>
</linearGradient>
<linearGradient id="paint2_linear_1364_11021" x1="257.375" y1="177.846" x2="359.223" y2="283.513" gradientUnits="userSpaceOnUse">
<stop stop-color="#8DC4EB"/>
<stop offset="1" stop-color="#6363DB"/>
</linearGradient>
<clipPath id="clip0_1364_11021">
<rect width="393" height="852" fill="white"/>
</clipPath>
</defs>
</svg>
