<svg width="18" height="20" viewBox="0 0 18 20" fill="none" xmlns="http://www.w3.org/2000/svg">
<path d="M18 18.9324C18 19.2155 17.8946 19.4871 17.7071 19.6873C17.5196 19.8875 17.2652 20 17 20H1C0.734784 20 0.48043 19.8875 0.292893 19.6873C0.105357 19.4871 2.4071e-07 19.2155 2.4071e-07 18.9324V7.71198C-0.000105484 7.54929 0.0346172 7.38873 0.101516 7.24256C0.168415 7.09639 0.26572 6.96847 0.386 6.86858L8.386 0.224936C8.56154 0.0791509 8.7776 0 9 0C9.2224 0 9.43846 0.0791509 9.614 0.224936L17.614 6.86858C17.7343 6.96847 17.8316 7.09639 17.8985 7.24256C17.9654 7.38873 18.0001 7.54929 18 7.71198V18.9324Z" fill="#C1C1C1"/>
</svg>
