<svg width="56" height="56" viewBox="0 0 56 56" fill="none" xmlns="http://www.w3.org/2000/svg">
<g filter="url(#filter0_d_1014_4426)">
<circle cx="28" cy="28" r="20" fill="white"/>
</g>
<path d="M28 31.5714C28.9472 31.5714 29.8556 31.1952 30.5254 30.5254C31.1952 29.8556 31.5714 28.9472 31.5714 28C31.5714 27.0528 31.1952 26.1444 30.5254 25.4746C29.8556 24.8048 28.9472 24.4286 28 24.4286C27.0528 24.4286 26.1444 24.8048 25.4746 25.4746C24.8048 26.1444 24.4286 27.0528 24.4286 28C24.4286 28.9472 24.8048 29.8556 25.4746 30.5254C26.1444 31.1952 27.0528 31.5714 28 31.5714ZM29.0714 19.0714C29.0714 18.7873 28.9585 18.5147 28.7576 18.3138C28.5567 18.1129 28.2842 18 28 18C27.7158 18 27.4433 18.1129 27.2424 18.3138C27.0415 18.5147 26.9286 18.7873 26.9286 19.0714V20.9371C25.4216 21.1665 24.0274 21.8716 22.9495 22.9495C21.8716 24.0274 21.1665 25.4216 20.9371 26.9286H19.0714C18.7873 26.9286 18.5147 27.0415 18.3138 27.2424C18.1129 27.4433 18 27.7158 18 28C18 28.2842 18.1129 28.5567 18.3138 28.7576C18.5147 28.9585 18.7873 29.0714 19.0714 29.0714H20.9371C21.1663 30.5785 21.8714 31.9728 22.9493 33.0507C24.0272 34.1287 25.4215 34.8337 26.9286 35.0629V36.9286C26.9286 37.2127 27.0415 37.4853 27.2424 37.6862C27.4433 37.8871 27.7158 38 28 38C28.2842 38 28.5567 37.8871 28.7576 37.6862C28.9585 37.4853 29.0714 37.2127 29.0714 36.9286V35.0629C30.5785 34.8337 31.9728 34.1287 33.0507 33.0507C34.1287 31.9728 34.8337 30.5785 35.0629 29.0714H36.9286C37.2127 29.0714 37.4853 28.9585 37.6862 28.7576C37.8871 28.5567 38 28.2842 38 28C38 27.7158 37.8871 27.4433 37.6862 27.2424C37.4853 27.0415 37.2127 26.9286 36.9286 26.9286H35.0629C34.8337 25.4215 34.1287 24.0272 33.0507 22.9493C31.9728 21.8714 30.5785 21.1663 29.0714 20.9371V19.0714ZM28 33C26.6739 33 25.4021 32.4732 24.4645 31.5355C23.5268 30.5979 23 29.3261 23 28C23 26.6739 23.5268 25.4021 24.4645 24.4645C25.4021 23.5268 26.6739 23 28 23C29.3261 23 30.5979 23.5268 31.5355 24.4645C32.4732 25.4021 33 26.6739 33 28C33 29.3261 32.4732 30.5979 31.5355 31.5355C30.5979 32.4732 29.3261 33 28 33Z" fill="#3D3D3D"/>
<defs>
<filter id="filter0_d_1014_4426" x="0" y="0" width="56" height="56" filterUnits="userSpaceOnUse" color-interpolation-filters="sRGB">
<feFlood flood-opacity="0" result="BackgroundImageFix"/>
<feColorMatrix in="SourceAlpha" type="matrix" values="0 0 0 0 0 0 0 0 0 0 0 0 0 0 0 0 0 0 127 0" result="hardAlpha"/>
<feOffset/>
<feGaussianBlur stdDeviation="4"/>
<feComposite in2="hardAlpha" operator="out"/>
<feColorMatrix type="matrix" values="0 0 0 0 0 0 0 0 0 0 0 0 0 0 0 0 0 0 0.25 0"/>
<feBlend mode="normal" in2="BackgroundImageFix" result="effect1_dropShadow_1014_4426"/>
<feBlend mode="normal" in="SourceGraphic" in2="effect1_dropShadow_1014_4426" result="shape"/>
</filter>
</defs>
</svg>
