<svg width="393" height="852" viewBox="0 0 393 852" fill="none" xmlns="http://www.w3.org/2000/svg">
<rect width="393" height="852" fill="#F6F6F6"/>
<path d="M271.583 396C271.271 394.208 270 391.958 267.583 390.146C266.396 389.25 265.187 388.667 264 388.417V387.542C266.354 386.979 268.667 385.396 270.146 383.25C270.896 382.167 271.375 381.104 271.583 380H272.458C272.812 382.104 274.438 384.438 276.646 386C277.729 386.771 278.854 387.292 280 387.542V388.417C277.688 388.896 275 390.958 273.667 393.062C273 394.125 272.604 395.104 272.458 396H271.583Z" fill="#DBDDFF"/>
<path d="M284.688 411C284.453 409.656 283.5 407.969 281.687 406.609C280.797 405.938 279.891 405.5 279 405.312V404.656C280.766 404.234 282.5 403.047 283.609 401.437C284.172 400.625 284.531 399.828 284.688 399H285.344C285.609 400.578 286.828 402.328 288.484 403.5C289.297 404.078 290.141 404.469 291 404.656V405.312C289.266 405.672 287.25 407.219 286.25 408.797C285.75 409.594 285.453 410.328 285.344 411H284.688Z" fill="#ACAFF4"/>
</svg>
