<svg width="13" height="13" viewBox="0 0 13 13" fill="none" xmlns="http://www.w3.org/2000/svg">
<path d="M11.7752 8.89068C11.6846 9.57878 11.3467 10.2104 10.8245 10.6675C10.3023 11.1247 9.63154 11.3761 8.9375 11.3749C4.90547 11.3749 1.625 8.09443 1.625 4.0624C1.62376 3.36837 1.8752 2.69761 2.33235 2.17541C2.78951 1.65322 3.42112 1.31529 4.10922 1.22474C4.28323 1.20349 4.45944 1.23909 4.61154 1.32622C4.76365 1.41335 4.88351 1.54734 4.95321 1.70818L6.02571 4.10251V4.10861C6.07907 4.23173 6.10111 4.36615 6.08986 4.49987C6.0786 4.63358 6.03441 4.76243 5.96122 4.8749C5.95208 4.88861 5.94243 4.9013 5.93227 4.914L4.875 6.16728C5.25536 6.94017 6.06379 7.7415 6.84684 8.12287L8.08286 7.07119C8.09499 7.06098 8.10771 7.05149 8.12094 7.04275C8.23332 6.9678 8.36261 6.92205 8.49711 6.90963C8.63162 6.89722 8.7671 6.91854 8.89129 6.97165L8.8979 6.9747L11.2902 8.04669C11.4513 8.11615 11.5856 8.23589 11.6731 8.38803C11.7605 8.54016 11.7963 8.7165 11.7752 8.89068Z" fill="white"/>
</svg>
