<svg width="17" height="18" viewBox="0 0 17 18" fill="none" xmlns="http://www.w3.org/2000/svg">
<path d="M0.944444 18C0.676852 18 0.452704 17.904 0.272 17.712C0.0912964 17.52 0.00062963 17.2827 0 17C0 16.7167 0.0906668 16.4793 0.272 16.288C0.453333 16.0967 0.677481 16.0007 0.944444 16H14.1667C14.4343 16 14.6587 16.096 14.8401 16.288C15.0214 16.48 15.1117 16.7173 15.1111 17C15.1111 17.2833 15.0204 17.521 14.8391 17.713C14.6578 17.905 14.4336 18.0007 14.1667 18H0.944444ZM3.77778 14C2.73889 14 1.84954 13.6083 1.10972 12.825C0.369908 12.0417 0 11.1 0 10V2C0 1.45 0.185111 0.979333 0.555333 0.588C0.925555 0.196667 1.37007 0.000666666 1.88889 0H15.1111C15.6306 0 16.0754 0.196 16.4456 0.588C16.8158 0.98 17.0006 1.45067 17 2V5C17 5.55 16.8152 6.021 16.4456 6.413C16.076 6.805 15.6312 7.00067 15.1111 7H13.2222V10C13.2222 11.1 12.8523 12.0417 12.1125 12.825C11.3727 13.6083 10.4833 14 9.44444 14H3.77778ZM13.2222 5H15.1111V2H13.2222V5Z" fill="#C1C1C1"/>
</svg>
