<svg width="14" height="14" viewBox="0 0 14 14" fill="none" xmlns="http://www.w3.org/2000/svg">
<path d="M12.2984 6.83232C12.2984 9.85102 9.85123 12.2982 6.83246 12.2982C3.81369 12.2982 1.36649 9.85102 1.36649 6.83232C1.36649 3.81361 3.81369 1.36646 6.83246 1.36646C9.85123 1.36646 12.2984 3.81361 12.2984 6.83232Z" fill="white"/>
<path d="M6.99985 14C10.8226 14 14 10.8294 14 7C14 3.17732 10.8156 0 6.99283 0C3.16362 0 0 3.17732 0 7C0 10.8294 3.17036 14 6.99985 14ZM4.53636 10.047C4.45974 10.0471 4.38386 10.0321 4.31305 10.0028C4.24225 9.97349 4.17792 9.93053 4.12374 9.87635C4.06956 9.82217 4.0266 9.75784 3.99731 9.68704C3.96802 9.61624 3.95299 9.54035 3.95307 9.46373C3.95307 9.30591 4.02159 9.16858 4.13139 9.06551L6.17645 7.00703L4.13139 4.94796C4.07499 4.89812 4.02989 4.83681 3.99908 4.76814C3.96828 4.69946 3.95249 4.625 3.95277 4.54974C3.95277 4.23438 4.21368 3.98021 4.53636 3.98021C4.69419 3.98021 4.83152 4.042 4.9346 4.1518L6.99312 6.20384L9.06599 4.14507C9.18253 4.0215 9.3061 3.96645 9.4572 3.96645C9.77959 3.96645 10.0405 4.22735 10.0405 4.54329C10.0405 4.70083 9.98544 4.83142 9.8689 4.94123L7.81009 7.00674L9.86187 9.05204C9.96495 9.16184 10.0335 9.29917 10.0335 9.46373C10.0335 9.54035 10.0185 9.61624 9.98922 9.68704C9.95994 9.75784 9.91697 9.82217 9.86279 9.87635C9.80861 9.93053 9.74428 9.97349 9.67348 10.0028C9.60267 10.0321 9.52679 10.0471 9.45017 10.047C9.37461 10.047 9.29983 10.0318 9.23027 10.0023C9.1607 9.97285 9.09777 9.9297 9.0452 9.87543L6.99341 7.81666L4.94807 9.87543C4.89469 9.93049 4.83066 9.9741 4.75988 10.0036C4.6891 10.0331 4.61304 10.0479 4.53636 10.047Z" fill="#4B51E7"/>
</svg>
