<svg width="349" height="116" viewBox="0 0 349 116" fill="none" xmlns="http://www.w3.org/2000/svg">
<g filter="url(#filter0_d_1364_19977)">
<rect x="10" y="6" width="329" height="96" rx="16" fill="#F18A69"/>
</g>
<g clip-path="url(#clip0_1364_19977)">
<rect x="10" y="6" width="329" height="96" rx="16" fill="#F18A69"/>
<path d="M298.27 31.2255C305.949 34.5852 312.631 39.9103 317.654 46.6738C322.677 53.4373 325.868 61.4046 326.91 69.787C327.952 78.1693 326.81 86.676 323.595 94.465C320.381 102.254 315.207 109.055 308.585 114.195C301.962 119.335 294.122 122.636 285.839 123.771C277.557 124.905 269.119 123.834 261.362 120.664C253.605 117.494 246.797 112.334 241.613 105.695C236.429 99.0569 233.047 91.1699 231.804 82.8152L231.598 81.257L231.441 79.6934C230.741 71.3423 232.195 62.9558 235.661 55.3513C239.127 47.7468 244.486 41.1838 251.217 36.3023C257.948 31.4208 265.82 28.3873 274.066 27.4976C282.312 26.6078 290.651 27.8922 298.27 31.2255ZM279.95 81.4972C277.096 81.8287 274.337 82.7321 271.836 84.1547C269.334 85.5772 267.14 87.4903 265.382 89.7818C264.985 90.2834 264.691 90.8599 264.518 91.4777C264.344 92.0955 264.293 92.7423 264.369 93.3805C264.445 94.0188 264.646 94.6357 264.96 95.1955C265.274 95.7552 265.695 96.2466 266.198 96.6412C266.701 97.0357 267.276 97.3254 267.891 97.4936C268.505 97.6617 269.146 97.7049 269.777 97.6206C270.407 97.5363 271.015 97.3262 271.564 97.0025C272.112 96.6789 272.592 96.2481 272.974 95.7352C273.951 94.4613 275.17 93.3977 276.56 92.6068C277.95 91.8159 279.483 91.3135 281.069 91.1292C282.656 90.9449 284.263 91.0823 285.797 91.5333C287.332 91.9844 288.762 92.74 290.005 93.756C290.998 94.5437 292.258 94.9056 293.511 94.7635C294.764 94.6214 295.91 93.9867 296.702 92.9966C297.494 92.0065 297.867 90.7406 297.741 89.4725C297.615 88.2044 297.001 87.0361 296.03 86.2201C293.793 84.3929 291.218 83.034 288.457 82.2231C285.696 81.4121 282.804 81.1653 279.95 81.4972ZM263.342 62.9201L262.741 63.0242C261.598 63.2982 260.596 63.9862 259.923 64.9579C259.251 65.9296 258.955 67.1176 259.092 68.2967C259.229 69.4759 259.789 70.5644 260.667 71.356C261.544 72.1476 262.678 72.5873 263.853 72.5919L264.414 72.5608L265.016 72.4567C266.159 72.1828 267.161 71.4948 267.834 70.5231C268.506 69.5514 268.802 68.3634 268.665 67.1842C268.528 66.0051 267.968 64.9166 267.09 64.125C266.213 63.3334 265.079 62.8936 263.904 62.889L263.342 62.9201ZM291.95 59.5956L291.349 59.6997C290.206 59.9736 289.203 60.6616 288.531 61.6334C287.858 62.6051 287.563 63.793 287.7 64.9722C287.837 66.1513 288.397 67.2398 289.274 68.0314C290.152 68.823 291.285 69.2628 292.46 69.2674L293.022 69.2363L293.624 69.1322C294.767 68.8582 295.769 68.1703 296.442 67.1985C297.114 66.2268 297.41 65.0389 297.273 63.8597C297.136 62.6805 296.575 61.5921 295.698 60.8005C294.821 60.0089 293.687 59.5691 292.512 59.5645L291.95 59.5956Z" fill="#F4A187"/>
<path d="M296.004 31.219C303.438 34.4318 309.904 39.5305 314.762 46.0102C319.62 52.4899 322.701 60.1261 323.701 68.1627C324.701 76.1993 323.584 84.3577 320.462 91.8302C317.34 99.3027 312.32 105.83 305.9 110.767C299.48 115.703 291.881 118.877 283.857 119.974C275.834 121.072 267.662 120.055 260.152 117.024C252.642 113.992 246.054 109.053 241.04 102.693C236.026 96.3331 232.76 88.7742 231.565 80.7643L231.368 79.2704L231.217 77.7712C230.548 69.7643 231.966 61.7207 235.332 54.4248C238.698 47.1289 243.897 40.8296 250.422 36.1411C256.947 31.4525 264.576 28.5347 272.564 27.6721C280.553 26.8095 288.628 28.0315 296.004 31.219ZM278.201 79.4454C275.437 79.7665 272.764 80.6359 270.339 82.0029C267.914 83.3698 265.787 85.2067 264.081 87.4061C263.696 87.8876 263.411 88.4407 263.242 89.0333C263.073 89.6259 263.023 90.2462 263.096 90.8581C263.169 91.47 263.363 92.0613 263.666 92.5977C263.97 93.1341 264.376 93.6049 264.863 93.9826C265.35 94.3603 265.907 94.6375 266.502 94.798C267.097 94.9586 267.718 94.9992 268.329 94.9177C268.94 94.8361 269.528 94.634 270.06 94.323C270.592 94.012 271.057 93.5983 271.428 93.1061C272.376 91.8834 273.558 90.8622 274.905 90.1022C276.253 89.3422 277.738 88.8587 279.275 88.6802C280.811 88.5016 282.368 88.6315 283.854 89.0623C285.339 89.493 286.724 90.2159 287.927 91.1887C288.888 91.9429 290.108 92.2885 291.322 92.1509C292.536 92.0132 293.647 91.4032 294.415 90.4529C295.182 89.5026 295.545 88.2883 295.425 87.0725C295.305 85.8567 294.711 84.7371 293.771 83.9557C291.607 82.2062 289.115 80.9061 286.441 80.1316C283.767 79.3572 280.966 79.1239 278.201 79.4454ZM262.136 61.6509L261.553 61.7514C260.446 62.0154 259.474 62.6763 258.822 63.6088C258.17 64.5414 257.882 65.6808 258.013 66.8114C258.144 67.9419 258.686 68.985 259.535 69.743C260.384 70.5011 261.481 70.9215 262.619 70.9246L263.164 70.8941L263.747 70.7936C264.854 70.5296 265.825 69.8687 266.478 68.9362C267.13 68.0036 267.418 66.8642 267.287 65.7336C267.156 64.6031 266.614 63.56 265.765 62.8019C264.916 62.0439 263.819 61.6235 262.68 61.6204L262.136 61.6509ZM289.85 58.4302L289.267 58.5308C288.16 58.7947 287.188 59.4556 286.536 60.3882C285.883 61.3207 285.596 62.4602 285.727 63.5907C285.858 64.7212 286.4 65.7643 287.249 66.5224C288.098 67.2805 289.195 67.7008 290.333 67.7039L290.877 67.6734L291.46 67.5729C292.567 67.3089 293.539 66.6481 294.192 65.7155C294.844 64.783 295.132 63.6435 295.001 62.513C294.869 61.3824 294.328 60.3394 293.479 59.5813C292.63 58.8232 291.532 58.4028 290.394 58.3998L289.85 58.4302Z" fill="url(#paint0_linear_1364_19977)"/>
</g>
<defs>
<filter id="filter0_d_1364_19977" x="0" y="0" width="349" height="116" filterUnits="userSpaceOnUse" color-interpolation-filters="sRGB">
<feFlood flood-opacity="0" result="BackgroundImageFix"/>
<feColorMatrix in="SourceAlpha" type="matrix" values="0 0 0 0 0 0 0 0 0 0 0 0 0 0 0 0 0 0 127 0" result="hardAlpha"/>
<feOffset dy="4"/>
<feGaussianBlur stdDeviation="5"/>
<feComposite in2="hardAlpha" operator="out"/>
<feColorMatrix type="matrix" values="0 0 0 0 0 0 0 0 0 0 0 0 0 0 0 0 0 0 0.25 0"/>
<feBlend mode="normal" in2="BackgroundImageFix" result="effect1_dropShadow_1364_19977"/>
<feBlend mode="normal" in="SourceGraphic" in2="effect1_dropShadow_1364_19977" result="shape"/>
</filter>
<linearGradient id="paint0_linear_1364_19977" x1="272.189" y1="27.7141" x2="282.925" y2="120.092" gradientUnits="userSpaceOnUse">
<stop stop-color="#FBE5DE"/>
<stop offset="1" stop-color="#F9C9BA"/>
</linearGradient>
<clipPath id="clip0_1364_19977">
<rect width="329" height="96" fill="white" transform="translate(10 6)"/>
</clipPath>
</defs>
</svg>
