<svg width="238" height="256" viewBox="0 0 238 256" fill="none" xmlns="http://www.w3.org/2000/svg">
<path fill-rule="evenodd" clip-rule="evenodd" d="M120.951 165.035C78.7617 162.724 44.2513 134.419 40.9059 96.9216C37.1761 55.114 73.5997 17.7102 122.26 13.3779C160.868 9.94052 195.58 28.3547 210.137 56.9909L213.153 54.5607C213.153 54.5607 258.18 130.922 224.54 162.738C203.078 183.037 153.809 174.138 120.951 165.035ZM170.984 88.5392L169.259 89.9291C166.311 105.243 151.072 117.94 131.486 120.365L125.956 124.821C105.754 123.951 89.1443 110.484 87.5477 92.5883C85.7842 72.8211 103.006 55.1361 126.013 53.0877C149.021 51.0393 169.101 65.4032 170.865 85.1704C170.966 86.301 171.005 87.4248 170.984 88.5392Z" fill="#91C690"/>
<path fill-rule="evenodd" clip-rule="evenodd" d="M89.4642 145.446C59.8503 136.063 37.9201 113.582 34.7633 85.2627C30.1919 44.2526 66.7211 6.52912 116.354 1.00508C155.957 -3.40275 191.937 14.0228 207.183 42.0801C207.183 42.0801 255.885 118.158 223.467 151.031C191.048 183.904 89.4395 145.468 89.4395 145.468L89.4642 145.446ZM129.783 110.043C149.805 107.409 165.099 93.6632 167.24 77.5037C167.551 75.1552 167.585 72.7558 167.315 70.332C165.153 50.9418 144.377 37.3403 120.91 39.9522C97.4435 42.564 80.172 60.4001 82.3334 79.7903C84.4949 99.1804 105.271 112.782 128.738 110.17C129.088 110.131 129.436 110.089 129.783 110.043Z" fill="url(#paint0_linear_1242_10388)"/>
<path fill-rule="evenodd" clip-rule="evenodd" d="M118.587 76.4907C122.157 72.5971 124.931 72.539 130.158 71.7757C135.385 71.0125 141.318 68.3667 145.854 71.0767C150.389 73.7867 153.65 79.2398 155.456 84.2055C157.263 89.1712 156.901 97.0546 155.166 102.045C159.215 102.511 163.388 100.776 166.648 103.223C169.907 105.671 172.877 110.965 174.455 114.723C176.033 118.482 175.841 123.839 175.306 127.879C174.771 131.92 173.17 135.745 170.668 138.962L167.79 142.593C167.79 142.593 173.017 137.877 179.328 142.783C189.335 150.564 190.006 168.966 182.23 178.973L147.967 223.064C147.831 223.293 147.681 223.513 147.517 223.723C131.468 244.376 111.367 254.155 91.1415 255.492C71.0707 256.809 51.3681 249.789 35.8304 237.708C4.27164 213.171 0.109962 176.012 4.45647 139.901C5.06134 132.411 5.81415 124.934 6.71443 117.474C9.79009 90.9222 40.6208 78.6126 61.5084 94.8064L77.4752 74.2596C79.9072 71.1304 83.1078 68.6843 86.7655 67.1594C90.4232 65.6344 92.8934 59.4887 96.8281 59.9635C100.763 60.4383 106.573 61.5455 110.605 64.8102C113.796 67.1615 116.967 72.8726 118.587 76.4907Z" fill="url(#paint1_linear_1242_10388)"/>
<path fill-rule="evenodd" clip-rule="evenodd" d="M114.518 73.305C118.088 69.4114 122.892 66.8686 128.119 66.1053C133.346 65.3421 138.677 66.4051 143.212 69.1151C147.748 71.8251 151.21 76.0164 153.016 80.9821C154.823 85.9478 154.862 91.3842 153.127 96.3745C157.175 96.8407 161.027 98.3762 164.287 100.823C167.546 103.271 170.096 106.541 171.674 110.3C173.252 114.058 173.802 118.168 173.267 122.209C172.731 126.25 171.131 130.075 168.629 133.291L165.751 136.923C165.751 136.923 170.736 135.446 177.047 140.353C187.054 148.133 187.967 163.295 180.19 173.303L145.927 217.394C145.792 217.623 145.642 217.843 145.477 218.052C129.428 238.705 109.327 248.484 89.102 249.821C69.0312 251.139 49.3286 244.118 33.7909 232.038C2.23214 207.5 -1.92955 170.342 2.41695 134.23C3.02182 126.741 3.77464 119.264 4.67492 111.804C7.75058 85.2518 38.5812 72.9422 59.4689 89.1359L75.4357 68.5891C77.8677 65.46 81.0683 63.0139 84.726 61.4889C88.3836 59.964 92.3739 59.412 96.3085 59.8868C100.243 60.3615 103.988 61.8469 107.179 64.1982C110.37 66.5496 112.898 69.6869 114.518 73.305Z" fill="url(#paint2_linear_1242_10388)"/>
<defs>
<linearGradient id="paint0_linear_1242_10388" x1="155.355" y1="9.24064" x2="91.7916" y2="219.076" gradientUnits="userSpaceOnUse">
<stop stop-color="#81FFFF"/>
<stop offset="1" stop-color="#8DDD9F"/>
</linearGradient>
<linearGradient id="paint1_linear_1242_10388" x1="-42.7891" y1="85.3448" x2="278.661" y2="205.539" gradientUnits="userSpaceOnUse">
<stop stop-color="#587E9B"/>
<stop offset="1" stop-color="#434595"/>
</linearGradient>
<linearGradient id="paint2_linear_1242_10388" x1="22.1634" y1="88.1051" x2="165.931" y2="170.612" gradientUnits="userSpaceOnUse">
<stop stop-color="#8DC4EB"/>
<stop offset="1" stop-color="#6363DB"/>
</linearGradient>
</defs>
</svg>
