<svg width="20" height="20" viewBox="0 0 20 20" fill="none" xmlns="http://www.w3.org/2000/svg">
<path d="M15.3304 11.0182C15.7308 10.0513 15.9369 9.01513 15.9369 7.96867C15.9369 5.85525 15.0974 3.82839 13.603 2.33397C12.1086 0.839554 10.0818 0 7.96846 0C5.8551 0 3.82829 0.839554 2.33391 2.33397C0.839532 3.82839 0 5.85525 0 7.96867C0 9.01513 0.20611 10.0513 0.606563 11.0182C1.00702 11.985 1.59397 12.8634 2.33391 13.6034C3.07385 14.3433 3.95229 14.9303 4.91906 15.3308C5.88584 15.7312 6.92203 15.9373 7.96846 15.9373C9.0149 15.9373 10.0511 15.7312 11.0179 15.3308C11.9846 14.9303 12.8631 14.3433 13.603 13.6034C14.343 12.8634 14.9299 11.985 15.3304 11.0182Z" fill="#C1C1C1"/>
<path d="M17.2003 14.6748C16.5029 13.9775 15.3723 13.9775 14.675 14.6748C13.9776 15.3722 13.9776 16.5028 14.675 17.2002L16.9517 19.477C17.649 20.1743 18.7796 20.1743 19.477 19.477C20.1743 18.7796 20.1743 17.649 19.477 16.9516L17.2003 14.6748Z" fill="#C1C1C1"/>
</svg>
