<svg width="349" height="116" viewBox="0 0 349 116" fill="none" xmlns="http://www.w3.org/2000/svg">
<g filter="url(#filter0_d_1364_19957)">
<rect x="10" y="6" width="329" height="96" rx="16" fill="#4B51E7"/>
</g>
<g clip-path="url(#clip0_1364_19957)">
<rect x="10" y="6" width="329" height="96" rx="16" fill="#4B51E7"/>
<path d="M310.044 33.4C316.424 38.8364 321.281 45.866 324.134 53.7931C326.987 61.7201 327.738 70.2696 326.312 78.5952C324.886 86.9209 321.333 94.7339 316.004 101.261C310.675 107.788 303.755 112.803 295.93 115.809C288.104 118.814 279.644 119.707 271.387 118.399C263.13 117.09 255.363 113.625 248.854 108.348C242.345 103.07 237.319 96.1624 234.276 88.3085C231.232 80.4546 230.276 71.9268 231.501 63.5693L231.755 62.0184L232.056 60.476C233.801 52.2792 237.617 44.6712 243.134 38.3935C248.65 32.1159 255.678 27.3828 263.533 24.6558C271.388 21.9289 279.801 21.301 287.952 22.8335C296.103 24.3659 303.715 28.0064 310.044 33.4ZM292.16 84.1262C291.424 83.0795 290.306 82.3722 289.051 82.1598C287.796 81.9474 286.507 82.2474 285.467 82.9938C284.164 83.9309 282.689 84.5965 281.13 84.9518C279.571 85.307 277.958 85.3446 276.386 85.0625C274.814 84.7803 273.315 84.1841 271.977 83.3087C270.638 82.4332 269.487 81.2963 268.591 79.9643C267.868 78.9231 266.767 78.2125 265.527 77.9862C264.286 77.7599 263.005 78.0361 261.961 78.755C260.917 79.474 260.194 80.5779 259.947 81.8282C259.701 83.0784 259.952 84.3746 260.645 85.4364C262.258 87.8327 264.33 89.8782 266.738 91.4531C269.147 93.0281 271.844 94.1008 274.672 94.6085C277.501 95.1162 280.403 95.0486 283.209 94.4098C286.015 93.771 288.668 92.5737 291.014 90.8881C292.054 90.1415 292.758 89.0097 292.973 87.7417C293.188 86.4736 292.895 85.1731 292.16 84.1262ZM267.445 53.6426L266.839 53.5683C265.617 53.4974 264.413 53.9002 263.473 54.6945C262.532 55.4888 261.927 56.6146 261.779 57.8419C261.632 59.0692 261.954 60.3053 262.679 61.2978C263.405 62.2902 264.48 62.964 265.684 63.1815L266.29 63.2558C267.511 63.3268 268.715 62.924 269.656 62.1297C270.596 61.3354 271.202 60.2096 271.349 58.9823C271.497 57.755 271.175 56.5188 270.449 55.5264C269.723 54.534 268.649 53.8602 267.445 53.6426ZM295.792 58.7313L295.186 58.6571C293.964 58.5861 292.76 58.9889 291.82 59.7832C290.88 60.5775 290.274 61.7033 290.126 62.9306C289.979 64.1579 290.301 65.394 291.027 66.3865C291.752 67.3789 292.827 68.0527 294.031 68.2703L294.637 68.3445C295.858 68.4155 297.062 68.0127 298.003 67.2184C298.943 66.4241 299.549 65.2983 299.696 64.071C299.844 62.8437 299.522 61.6076 298.796 60.6151C298.07 59.6227 296.996 58.9489 295.792 58.7313Z" fill="#6F74EC"/>
<path d="M308.387 33.1921C314.597 38.4358 319.329 45.2104 322.116 52.8452C324.903 60.4801 325.648 68.7104 324.276 76.7214C322.905 84.7325 319.465 92.2464 314.297 98.5195C309.13 104.793 302.413 109.607 294.813 112.487C287.212 115.366 278.992 116.211 270.964 114.937C262.937 113.663 255.382 110.315 249.047 105.224C242.711 100.133 237.815 93.4751 234.843 85.9103C231.872 78.3455 230.927 70.1357 232.103 62.0937L232.348 60.6014L232.638 59.1173C234.319 51.2309 238.015 43.9147 243.366 37.882C248.716 31.8493 255.538 27.3059 263.168 24.6948C270.797 22.0837 278.972 21.494 286.897 22.9832C294.822 24.4724 302.226 27.9897 308.387 33.1921ZM291.094 81.9856C290.377 80.9768 289.289 80.2941 288.068 80.0875C286.848 79.8809 285.596 80.1674 284.587 80.884C283.322 81.7837 281.89 82.4218 280.375 82.761C278.86 83.1002 277.293 83.1336 275.765 82.8593C274.237 82.585 272.779 82.0085 271.476 81.1635C270.174 80.3186 269.053 79.2223 268.18 77.9387C267.475 76.9352 266.404 76.2494 265.198 76.0294C263.992 75.8094 262.747 76.073 261.734 76.7632C260.721 77.4533 260.019 78.5146 259.782 79.7176C259.545 80.9206 259.791 82.1686 260.467 83.1918C262.038 85.501 264.055 87.4735 266.399 88.9936C268.743 90.5137 271.366 91.5509 274.116 92.0444C276.865 92.538 279.686 92.4781 282.412 91.8681C285.138 91.2581 287.715 90.1103 289.992 88.492C291.001 87.7752 291.683 86.6871 291.89 85.4669C292.097 84.2468 291.81 82.9945 291.094 81.9856ZM267.02 52.6017L266.431 52.5292C265.243 52.4588 264.074 52.8444 263.161 53.6073C262.249 54.3701 261.662 55.4527 261.521 56.6337C261.38 57.8147 261.695 59.0051 262.402 59.9616C263.109 60.9181 264.154 61.5685 265.325 61.78L265.914 61.8526C267.101 61.923 268.271 61.5373 269.183 60.7745C270.096 60.0116 270.683 58.929 270.824 57.748C270.965 56.567 270.65 55.3766 269.943 54.4201C269.236 53.4636 268.19 52.8132 267.02 52.6017ZM294.579 57.549L293.99 57.4765C292.803 57.4061 291.633 57.7917 290.721 58.5546C289.808 59.3174 289.221 60.4 289.08 61.581C288.939 62.762 289.254 63.9524 289.961 64.9089C290.668 65.8654 291.714 66.5158 292.884 66.7273L293.473 66.7999C294.661 66.8703 295.83 66.4846 296.743 65.7218C297.655 64.9589 298.242 63.8764 298.383 62.6953C298.525 61.5143 298.209 60.3239 297.502 59.3674C296.795 58.4109 295.75 57.7605 294.579 57.549Z" fill="url(#paint0_linear_1364_19957)"/>
</g>
<defs>
<filter id="filter0_d_1364_19957" x="0" y="0" width="349" height="116" filterUnits="userSpaceOnUse" color-interpolation-filters="sRGB">
<feFlood flood-opacity="0" result="BackgroundImageFix"/>
<feColorMatrix in="SourceAlpha" type="matrix" values="0 0 0 0 0 0 0 0 0 0 0 0 0 0 0 0 0 0 127 0" result="hardAlpha"/>
<feOffset dy="4"/>
<feGaussianBlur stdDeviation="5"/>
<feComposite in2="hardAlpha" operator="out"/>
<feColorMatrix type="matrix" values="0 0 0 0 0 0 0 0 0 0 0 0 0 0 0 0 0 0 0.25 0"/>
<feBlend mode="normal" in2="BackgroundImageFix" result="effect1_dropShadow_1364_19957"/>
<feBlend mode="normal" in="SourceGraphic" in2="effect1_dropShadow_1364_19957" result="shape"/>
</filter>
<linearGradient id="paint0_linear_1364_19957" x1="286.525" y1="22.9148" x2="270.034" y2="114.78" gradientUnits="userSpaceOnUse">
<stop stop-color="#EBECFF"/>
<stop offset="1" stop-color="#C5C8FF"/>
</linearGradient>
<clipPath id="clip0_1364_19957">
<rect width="329" height="96" fill="white" transform="translate(10 6)"/>
</clipPath>
</defs>
</svg>
