<svg width="46" height="43" viewBox="0 0 46 43" fill="none" xmlns="http://www.w3.org/2000/svg">
<g id="Frame 201">
<g id="Vector">
<path d="M18.1178 5.23645C18.1225 5.37951 18.125 5.52739 18.125 5.68027L17.4607 9.18231C16.7083 10.5051 16.332 11.1665 15.7468 11.6026C15.1594 12.0388 14.4299 12.2005 12.9688 12.524L11.6395 12.8189C6.4975 13.9574 3.92652 14.5287 3.31408 16.4555C2.70373 18.3823 4.45534 20.391 7.96066 24.4044L8.86782 25.4446L8.87006 25.4471C9.86352 26.5839 10.3625 27.1549 10.5839 27.8608C10.8096 28.5651 10.7344 29.3269 10.5839 30.8503L8.56945 34.3469C7.97437 39.5933 8.75227 40.1715 10.3438 41.3545L10.3611 41.3674C11.9601 42.555 15.2618 41.5655 20.0756 39.395L21.3214 38.834C22.6884 38.2156 23.3719 37.9085 24.0972 37.9085C24.8225 37.9085 25.506 38.2156 26.873 38.834L28.1209 39.395L28.1292 39.3988C32.9354 41.5668 35.3415 42.6521 36.9417 41.4611C38.5417 40.2722 38.2777 37.5967 37.7496 32.2452L37.6106 30.8482C37.4601 29.3269 37.3848 28.5651 37.6085 27.8587C37.8314 27.1565 38.3286 26.5865 39.3176 25.4529L39.3266 25.4425L40.2338 24.4044C43.7391 20.389 45.4907 18.3802 44.8804 16.4555C44.2681 14.5293 41.7006 13.9598 36.5619 12.82L35.2277 12.524C33.7645 12.2005 33.0329 12.0388 32.4477 11.6026C31.8624 11.1665 31.4862 10.5051 30.7337 9.18234L30.0439 7.97093C27.3984 3.32364 26.0756 1 24.0972 1C23.3341 1 22.6605 1 22.0664 1.00356V5.23645H18.1178Z" fill="#353AA4"/>
<path d="M16.2402 7.64599C18.7625 3.21533 20.0226 1 21.9079 1C23.7931 1 25.0532 3.21533 27.5755 7.64599L28.2285 8.79265C28.9451 10.0524 29.3035 10.6823 29.8609 11.0977C30.4183 11.5131 31.1151 11.6671 32.5086 11.9752L33.7747 12.2561C38.6719 13.3423 41.1185 13.8844 41.7018 15.7195C42.2831 17.5526 40.6149 19.4656 37.2764 23.2898L36.4124 24.2785C35.4648 25.3647 34.989 25.9088 34.776 26.5796C34.563 27.2524 34.6347 27.9779 34.778 29.4268L34.9094 30.747C35.4131 35.8505 35.6659 38.4012 34.141 39.5342C32.6161 40.6692 30.3227 39.6337 25.7401 37.5666L24.5516 37.0322C23.2496 36.4433 22.5987 36.1508 21.9079 36.1508C21.2171 36.1508 20.5661 36.4433 19.2642 37.0322L18.0777 37.5666C13.493 39.6337 11.1997 40.6673 9.67676 39.5362C8.14987 38.4012 8.40269 35.8505 8.90635 30.747L9.03774 29.4288C9.18107 27.9779 9.25274 27.2524 9.03774 26.5816C8.82672 25.9088 8.35093 25.3647 7.40334 24.2805L6.53936 23.2898C3.20088 19.4676 1.53264 17.5545 2.11394 15.7195C2.69723 13.8844 5.14584 13.3403 10.0431 12.2561L11.3092 11.9752C12.7007 11.6671 13.3955 11.5131 13.9549 11.0977C14.5123 10.6823 14.8706 10.0524 15.5873 8.79265L16.2402 7.64599Z" fill="url(#paint0_linear_1684_3747)"/>
</g>
</g>
<defs>
<linearGradient id="paint0_linear_1684_3747" x1="21.9079" y1="1" x2="21.9079" y2="40.0022" gradientUnits="userSpaceOnUse">
<stop stop-color="#A2A5EB"/>
<stop offset="1" stop-color="#4B51E7"/>
</linearGradient>
</defs>
</svg>
