<svg width="392" height="852" viewBox="0 0 392 852" fill="none" xmlns="http://www.w3.org/2000/svg">
<rect width="392" height="852" fill="url(#paint0_linear_1242_10389)"/>
<path fill-rule="evenodd" clip-rule="evenodd" d="M158.951 293.035C116.762 290.724 82.2513 262.419 78.9059 224.922C75.1761 183.114 111.6 145.71 160.26 141.378C198.868 137.941 233.58 156.355 248.137 184.991L251.153 182.561C251.153 182.561 296.18 258.922 262.54 290.738C241.078 311.037 191.809 302.138 158.951 293.035ZM208.984 216.539L207.259 217.929C204.311 233.243 189.072 245.94 169.486 248.365L163.956 252.821C143.754 251.951 127.144 238.484 125.548 220.588C123.784 200.821 141.006 183.136 164.013 181.088C187.021 179.039 207.101 193.403 208.865 213.17C208.966 214.301 209.005 215.425 208.984 216.539Z" fill="#91C690"/>
<path fill-rule="evenodd" clip-rule="evenodd" d="M127.464 273.446C97.8503 264.063 75.9201 241.582 72.7633 213.263C68.1919 172.253 104.721 134.529 154.354 129.005C193.957 124.597 229.937 142.023 245.183 170.08C245.183 170.08 293.885 246.158 261.467 279.031C229.048 311.904 127.44 273.468 127.44 273.468L127.464 273.446ZM167.783 238.043C187.805 235.409 203.099 221.663 205.24 205.504C205.551 203.155 205.585 200.756 205.315 198.332C203.153 178.942 182.377 165.34 158.91 167.952C135.443 170.564 118.172 188.4 120.333 207.79C122.495 227.18 143.271 240.782 166.738 238.17C167.088 238.131 167.436 238.089 167.783 238.043Z" fill="url(#paint1_linear_1242_10389)"/>
<path fill-rule="evenodd" clip-rule="evenodd" d="M156.587 204.491C160.157 200.597 162.931 200.539 168.158 199.776C173.385 199.012 179.318 196.367 183.854 199.077C188.389 201.787 191.65 207.24 193.456 212.205C195.263 217.171 194.901 225.055 193.166 230.045C197.215 230.511 201.388 228.776 204.648 231.223C207.907 233.671 210.877 238.965 212.455 242.723C214.033 246.482 213.841 251.839 213.306 255.879C212.771 259.92 211.17 263.745 208.668 266.962L205.79 270.593C205.79 270.593 211.017 265.877 217.328 270.783C227.335 278.564 228.006 296.966 220.23 306.973L185.967 351.064C185.831 351.293 185.681 351.513 185.517 351.723C169.468 372.376 149.367 382.155 129.141 383.492C109.071 384.809 89.3681 377.789 73.8304 365.708C42.2716 341.171 38.11 304.012 42.4565 267.901C43.0613 260.411 43.8142 252.934 44.7144 245.474C47.7901 218.922 78.6208 206.613 99.5084 222.806L115.475 202.26C117.907 199.13 121.108 196.684 124.765 195.159C128.423 193.634 130.893 187.489 134.828 187.963C138.763 188.438 144.573 189.546 148.605 192.81C151.796 195.162 154.967 200.873 156.587 204.491Z" fill="url(#paint2_linear_1242_10389)"/>
<path fill-rule="evenodd" clip-rule="evenodd" d="M152.518 201.305C156.088 197.411 160.892 194.869 166.119 194.105C171.346 193.342 176.677 194.405 181.212 197.115C185.748 199.825 189.21 204.016 191.016 208.982C192.823 213.948 192.862 219.384 191.127 224.375C195.175 224.841 199.027 226.376 202.287 228.823C205.546 231.271 208.096 234.541 209.674 238.3C211.252 242.058 211.802 246.168 211.267 250.209C210.731 254.25 209.131 258.075 206.629 261.291L203.751 264.923C203.751 264.923 208.736 263.446 215.047 268.353C225.054 276.133 225.967 291.295 218.19 301.303L183.927 345.394C183.792 345.623 183.642 345.843 183.477 346.052C167.428 366.705 147.327 376.484 127.102 377.821C107.031 379.139 87.3286 372.118 71.7909 360.038C40.2321 335.5 36.0704 298.342 40.417 262.23C41.0218 254.741 41.7746 247.264 42.6749 239.804C45.7506 213.252 76.5812 200.942 97.4689 217.136L113.436 196.589C115.868 193.46 119.068 191.014 122.726 189.489C126.384 187.964 130.374 187.412 134.309 187.887C138.243 188.362 141.988 189.847 145.179 192.198C148.37 194.55 150.898 197.687 152.518 201.305Z" fill="url(#paint3_linear_1242_10389)"/>
<path d="M255.583 147C255.271 145.208 254 142.958 251.583 141.146C250.396 140.25 249.187 139.667 248 139.417V138.542C250.354 137.979 252.667 136.396 254.146 134.25C254.896 133.167 255.375 132.104 255.583 131H256.458C256.812 133.104 258.438 135.438 260.646 137C261.729 137.771 262.854 138.292 264 138.542V139.417C261.687 139.896 259 141.958 257.667 144.062C257 145.125 256.604 146.104 256.458 147H255.583Z" fill="#DBDDFF"/>
<path d="M272.688 137C272.453 135.656 271.5 133.969 269.688 132.609C268.797 131.937 267.891 131.5 267 131.312V130.656C268.766 130.234 270.5 129.047 271.609 127.437C272.172 126.625 272.531 125.828 272.688 125H273.344C273.609 126.578 274.828 128.328 276.484 129.5C277.297 130.078 278.141 130.469 279 130.656V131.312C277.266 131.672 275.25 133.219 274.25 134.797C273.75 135.594 273.453 136.328 273.344 137H272.688Z" fill="#ACAFF4"/>
<path d="M49.6875 186C49.4531 184.656 48.5 182.969 46.6875 181.609C45.7969 180.937 44.8906 180.5 44 180.312V179.656C45.7656 179.234 47.5 178.047 48.6094 176.437C49.1719 175.625 49.5313 174.828 49.6875 174H50.3438C50.6094 175.578 51.8281 177.328 53.4844 178.5C54.2969 179.078 55.1406 179.469 56 179.656V180.312C54.2656 180.672 52.25 182.219 51.25 183.797C50.75 184.594 50.4531 185.328 50.3438 186H49.6875Z" fill="#868AEF"/>
<defs>
<linearGradient id="paint0_linear_1242_10389" x1="196" y1="0" x2="196.501" y2="852" gradientUnits="userSpaceOnUse">
<stop stop-color="#4B51E7"/>
<stop offset="0.425076" stop-color="#373CAA"/>
<stop offset="0.9999" stop-color="#353AA4"/>
</linearGradient>
<linearGradient id="paint1_linear_1242_10389" x1="193.355" y1="137.241" x2="129.792" y2="347.076" gradientUnits="userSpaceOnUse">
<stop stop-color="#81FFFF"/>
<stop offset="1" stop-color="#8DDD9F"/>
</linearGradient>
<linearGradient id="paint2_linear_1242_10389" x1="-4.78913" y1="213.345" x2="316.661" y2="333.539" gradientUnits="userSpaceOnUse">
<stop stop-color="#587E9B"/>
<stop offset="1" stop-color="#434595"/>
</linearGradient>
<linearGradient id="paint3_linear_1242_10389" x1="60.1634" y1="216.105" x2="203.931" y2="298.612" gradientUnits="userSpaceOnUse">
<stop stop-color="#8DC4EB"/>
<stop offset="1" stop-color="#6363DB"/>
</linearGradient>
</defs>
</svg>
