<svg width="12" height="13" viewBox="0 0 12 13" fill="none" xmlns="http://www.w3.org/2000/svg">
<path id="Vector" d="M11.993 9.56483C11.886 10.3779 11.4867 11.1242 10.8697 11.6643C10.2527 12.2045 9.46019 12.5016 8.64015 12.5001C3.87607 12.5001 5.42928e-06 8.62402 5.42928e-06 3.85994C-0.00146458 3.0399 0.295623 2.24736 0.83578 1.63036C1.37594 1.01335 2.12222 0.614065 2.93526 0.507079C3.14085 0.481975 3.34905 0.524036 3.52878 0.626984C3.7085 0.729932 3.85012 0.888244 3.93247 1.07829L5.1997 3.90734V3.91454C5.26275 4.06001 5.28879 4.21884 5.27549 4.37683C5.2622 4.53482 5.20997 4.68706 5.12349 4.81995C5.11269 4.83615 5.10129 4.85115 5.08929 4.86615L3.84007 6.34698C4.28948 7.2602 5.2447 8.20701 6.16991 8.65762L7.63034 7.415C7.64468 7.40294 7.6597 7.39172 7.67534 7.3814C7.80812 7.29284 7.96088 7.23878 8.11981 7.22411C8.27873 7.20944 8.43881 7.23463 8.58555 7.2974L8.59335 7.301L11.42 8.56762C11.6104 8.64968 11.7691 8.79117 11.8724 8.97092C11.9757 9.15067 12.018 9.35903 11.993 9.56483Z" fill="white"/>
</svg>
