<svg width="349" height="116" viewBox="0 0 349 116" fill="none" xmlns="http://www.w3.org/2000/svg">
<g clip-path="url(#clip0_1364_19965)">
<path d="M182.333 39.5666C184.847 41.0181 186.938 43.1009 188.4 45.6088C189.861 48.1168 190.642 50.9629 190.666 53.8655C190.689 56.7682 189.954 59.6266 188.533 62.1578C187.113 64.6891 185.055 66.8053 182.565 68.2972C180.075 69.789 177.239 70.6047 174.337 70.6634C171.435 70.7222 168.568 70.0219 166.019 68.6321C163.471 67.2422 161.33 65.2109 159.808 62.7392C158.286 60.2675 157.436 57.4412 157.342 54.54L157.333 54L157.342 53.46C157.435 50.5816 158.273 47.7766 159.773 45.3183C161.273 42.86 163.384 40.8324 165.901 39.4331C168.419 38.0338 171.255 37.3106 174.135 37.334C177.015 37.3574 179.839 38.1266 182.333 39.5666ZM179 57.3333H169L168.805 57.345C168.4 57.3932 168.027 57.5882 167.756 57.8933C167.485 58.1983 167.335 58.592 167.335 59C167.335 59.4079 167.485 59.8017 167.756 60.1067C168.027 60.4117 168.4 60.6068 168.805 60.655L169 60.6666H179L179.195 60.655C179.6 60.6068 179.973 60.4117 180.244 60.1067C180.515 59.8017 180.665 59.4079 180.665 59C180.665 58.592 180.515 58.1983 180.244 57.8933C179.973 57.5882 179.6 57.3932 179.195 57.345L179 57.3333ZM169.017 49L168.805 49.0117C168.4 49.0598 168.027 49.2549 167.756 49.5599C167.485 49.8649 167.335 50.2587 167.335 50.6667C167.335 51.0746 167.485 51.4684 167.756 51.7734C168.027 52.0784 168.4 52.2735 168.805 52.3216L169 52.3333L169.212 52.3216C169.617 52.2735 169.99 52.0784 170.261 51.7734C170.532 51.4684 170.681 51.0746 170.681 50.6667C170.681 50.2587 170.532 49.8649 170.261 49.5599C169.99 49.2549 169.617 49.0598 169.212 49.0117L169.017 49ZM179.017 49L178.805 49.0117C178.4 49.0598 178.027 49.2549 177.756 49.5599C177.485 49.8649 177.335 50.2587 177.335 50.6667C177.335 51.0746 177.485 51.4684 177.756 51.7734C178.027 52.0784 178.4 52.2735 178.805 52.3216L179 52.3333L179.212 52.3216C179.617 52.2735 179.99 52.0784 180.261 51.7734C180.532 51.4684 180.681 51.0746 180.681 50.6667C180.681 50.2587 180.532 49.8649 180.261 49.5599C179.99 49.2549 179.617 49.0598 179.212 49.0117L179.017 49Z" fill="#1C254D"/>
</g>
<g filter="url(#filter0_d_1364_19965)">
<rect x="10" y="6" width="329" height="96" rx="16" fill="#8AE6B7"/>
</g>
<g clip-path="url(#clip1_1364_19965)">
<rect x="10" y="6" width="329" height="96" rx="16" fill="#8AE6B7"/>
<path d="M304.251 30.6995C311.415 35.0537 317.375 41.3021 321.54 48.826C325.705 56.3498 327.932 64.8883 327.998 73.5962C328.065 82.304 325.97 90.8792 321.921 98.4729C317.872 106.067 312.009 112.416 304.912 116.891C297.816 121.367 289.732 123.814 281.461 123.99C273.189 124.166 265.018 122.065 257.755 117.896C250.492 113.726 244.39 107.632 240.052 100.217C235.714 92.802 233.292 84.323 233.024 75.6195L233 73.9995L233.024 72.3795C233.29 63.7444 235.677 55.3293 239.952 47.9544C244.228 40.5796 250.246 34.4967 257.42 30.2989C264.593 26.101 272.678 23.9314 280.885 24.0017C289.093 24.0719 297.143 26.3795 304.251 30.6995ZM294.751 83.9995H266.25L265.695 84.0345C264.54 84.179 263.476 84.7642 262.704 85.6793C261.932 86.5943 261.506 87.7756 261.506 88.9995C261.506 90.2233 261.932 91.4046 262.704 92.3196C263.476 93.2347 264.54 93.8199 265.695 93.9644L266.25 93.9995H294.751L295.307 93.9644C296.461 93.8199 297.525 93.2347 298.297 92.3196C299.069 91.4046 299.496 90.2233 299.496 88.9995C299.496 87.7756 299.069 86.5943 298.297 85.6793C297.525 84.7642 296.461 84.179 295.307 84.0345L294.751 83.9995ZM266.298 58.9995L265.695 59.0345C264.54 59.179 263.476 59.7642 262.704 60.6793C261.932 61.5943 261.506 62.7756 261.506 63.9995C261.506 65.2233 261.932 66.4046 262.704 67.3196C263.476 68.2347 264.54 68.8199 265.695 68.9645L266.25 68.9995L266.854 68.9645C268.008 68.8199 269.072 68.2347 269.844 67.3196C270.616 66.4046 271.043 65.2233 271.043 63.9995C271.043 62.7756 270.616 61.5943 269.844 60.6793C269.072 59.7642 268.008 59.179 266.854 59.0345L266.298 58.9995ZM294.798 58.9995L294.195 59.0345C293.041 59.179 291.976 59.7642 291.204 60.6793C290.432 61.5943 290.006 62.7756 290.006 63.9995C290.006 65.2233 290.432 66.4046 291.204 67.3196C291.976 68.2347 293.041 68.8199 294.195 68.9645L294.751 68.9995L295.354 68.9645C296.509 68.8199 297.573 68.2347 298.345 67.3196C299.117 66.4046 299.543 65.2233 299.543 63.9995C299.543 62.7756 299.117 61.5943 298.345 60.6793C297.573 59.7642 296.509 59.179 295.354 59.0345L294.798 58.9995Z" fill="#A1EBC5"/>
<path d="M302.751 30.4985C309.764 34.7221 315.599 40.783 319.676 48.0812C323.754 55.3793 325.933 63.6617 325.998 72.1083C326.064 80.5549 324.013 88.8728 320.049 96.2387C316.085 103.605 310.346 109.763 303.398 114.104C296.451 118.446 288.537 120.819 280.44 120.99C272.343 121.161 264.344 119.123 257.234 115.079C250.124 111.034 244.15 105.123 239.904 97.9305C235.657 90.7379 233.286 82.5133 233.023 74.0709L233 72.4995L233.023 70.9281C233.284 62.5521 235.621 54.3894 239.806 47.2358C243.991 40.0822 249.883 34.1818 256.905 30.1099C263.928 26.038 271.843 23.9335 279.877 24.0016C287.912 24.0697 295.793 26.3081 302.751 30.4985ZM293.451 82.1995H265.55L265.006 82.2334C263.876 82.3736 262.835 82.9413 262.079 83.8289C261.323 84.7165 260.906 85.8624 260.906 87.0495C260.906 88.2366 261.323 89.3824 262.079 90.27C262.835 91.1576 263.876 91.7253 265.006 91.8655L265.55 91.8995H293.451L293.995 91.8655C295.125 91.7253 296.167 91.1576 296.922 90.27C297.678 89.3824 298.096 88.2366 298.096 87.0495C298.096 85.8624 297.678 84.7165 296.922 83.8289C296.167 82.9413 295.125 82.3736 293.995 82.2334L293.451 82.1995ZM265.597 57.9495L265.006 57.9834C263.876 58.1236 262.835 58.6913 262.079 59.5789C261.323 60.4665 260.906 61.6124 260.906 62.7995C260.906 63.9866 261.323 65.1324 262.079 66.02C262.835 66.9076 263.876 67.4753 265.006 67.6155L265.55 67.6495L266.141 67.6155C267.271 67.4753 268.313 66.9076 269.069 66.02C269.824 65.1324 270.242 63.9866 270.242 62.7995C270.242 61.6124 269.824 60.4665 269.069 59.5789C268.313 58.6913 267.271 58.1236 266.141 57.9834L265.597 57.9495ZM293.497 57.9495L292.907 57.9834C291.776 58.1236 290.735 58.6913 289.979 59.5789C289.223 60.4665 288.806 61.6124 288.806 62.7995C288.806 63.9866 289.223 65.1324 289.979 66.02C290.735 66.9076 291.776 67.4753 292.907 67.6155L293.451 67.6495L294.041 67.6155C295.171 67.4753 296.213 66.9076 296.969 66.02C297.725 65.1324 298.142 63.9866 298.142 62.7995C298.142 61.6124 297.725 60.4665 296.969 59.5789C296.213 58.6913 295.171 58.1236 294.041 57.9834L293.497 57.9495Z" fill="url(#paint0_linear_1364_19965)"/>
</g>
<defs>
<filter id="filter0_d_1364_19965" x="0" y="0" width="349" height="116" filterUnits="userSpaceOnUse" color-interpolation-filters="sRGB">
<feFlood flood-opacity="0" result="BackgroundImageFix"/>
<feColorMatrix in="SourceAlpha" type="matrix" values="0 0 0 0 0 0 0 0 0 0 0 0 0 0 0 0 0 0 127 0" result="hardAlpha"/>
<feOffset dy="4"/>
<feGaussianBlur stdDeviation="5"/>
<feComposite in2="hardAlpha" operator="out"/>
<feColorMatrix type="matrix" values="0 0 0 0 0 0 0 0 0 0 0 0 0 0 0 0 0 0 0.2 0"/>
<feBlend mode="normal" in2="BackgroundImageFix" result="effect1_dropShadow_1364_19965"/>
<feBlend mode="normal" in="SourceGraphic" in2="effect1_dropShadow_1364_19965" result="shape"/>
</filter>
<linearGradient id="paint0_linear_1364_19965" x1="279.5" y1="24" x2="279.5" y2="121" gradientUnits="userSpaceOnUse">
<stop stop-color="#C9F4DE"/>
<stop offset="0.0001" stop-color="#E6FDF1"/>
</linearGradient>
<clipPath id="clip0_1364_19965">
<rect width="40" height="40" fill="white" transform="translate(154 34)"/>
</clipPath>
<clipPath id="clip1_1364_19965">
<rect width="329" height="96" fill="white" transform="translate(10 6)"/>
</clipPath>
</defs>
</svg>
