<svg width="198" height="228" viewBox="0 0 198 228" fill="none" xmlns="http://www.w3.org/2000/svg">
<g filter="url(#filter0_f_1364_19872)">
<path d="M167.556 177.752C168.13 183.137 137.812 190.788 99.8383 194.839C61.8645 198.891 30.6149 197.809 30.0403 192.424C29.4657 187.038 59.7837 179.388 97.7575 175.336C135.731 171.284 166.981 172.366 167.556 177.752Z" fill="#6363DB"/>
</g>
<path fill-rule="evenodd" clip-rule="evenodd" d="M90.7498 102.967C65.9822 90.5686 52.6169 64.5477 60.3926 41.1321C69.0619 15.0251 100.728 2.04296 131.122 12.1357C155.236 20.1434 171.304 40.2709 172.583 61.2847L175.031 60.6107C175.031 60.6107 182.178 118.266 153.644 128.616C135.439 135.219 108.133 117.013 90.7498 102.967ZM140.804 70.0344L139.404 70.4199C133.634 78.8574 121.156 82.5136 108.745 78.8609L104.256 80.0968C92.3343 74.3024 85.8612 61.8723 89.5721 50.6974C93.671 38.3536 108.643 32.2155 123.014 36.9875C137.384 41.7594 145.711 55.6344 141.612 67.9782C141.377 68.6842 141.107 69.3699 140.804 70.0344Z" fill="#91C690"/>
<path fill-rule="evenodd" clip-rule="evenodd" d="M76.9279 82.9744C61.5685 69.6063 54.2484 50.3688 59.7418 32.5202C67.6969 6.67303 99.5103 -6.47369 130.799 3.15618C155.766 10.8402 172.854 30.7044 174.699 51.5499C174.699 51.5499 184.129 109.994 156.054 121.297C127.978 132.601 76.9074 82.981 76.9074 82.981L76.9279 82.9744ZM110.415 72.2115C123.143 75.8523 135.927 71.5792 141.433 62.4233C142.233 61.0927 142.88 59.6589 143.35 58.1313C147.111 45.9104 138.167 32.3124 123.374 27.7592C108.58 23.2061 93.5381 29.4221 89.7768 41.6429C86.0156 53.8638 94.9592 67.4618 109.753 72.015C109.973 72.0828 110.194 72.1484 110.415 72.2115Z" fill="url(#paint0_linear_1364_19872)"/>
<path fill-rule="evenodd" clip-rule="evenodd" d="M112.439 49.119C115.602 47.7098 117.286 48.3989 120.629 49.3039C123.971 50.209 128.229 50.1664 130.25 52.9791C132.27 55.7917 132.807 59.9209 132.597 63.3775C132.388 66.834 130.112 71.479 127.767 74.0264C130.08 75.3631 133.042 75.4092 134.364 77.7309C135.685 80.0526 136.089 84.0102 136.057 86.6814C136.025 89.3526 134.511 92.5232 133.135 94.8126C131.758 97.1021 129.797 98.9839 127.453 100.265L124.775 101.697C124.775 101.697 129.149 100.226 131.663 104.822C135.65 112.111 131.251 123.348 123.962 127.335L91.8496 144.902C91.7085 145.004 91.5607 145.097 91.4073 145.18C76.3651 153.408 61.725 154.042 49.2134 149.569C36.7998 145.123 26.7839 135.762 20.5933 124.445C8.01971 101.459 15.2159 78.0344 27.2553 57.4591C29.5739 53.1144 31.9782 48.8159 34.4667 44.5662C43.2467 29.4062 65 30.0507 73.3342 45.2363L88.2989 37.0503C90.5782 35.8038 93.1413 35.1684 95.7389 35.206C98.3365 35.2436 101.426 32.1936 103.668 33.5057C105.911 34.8178 109.115 36.9994 110.688 40.0143C111.993 42.2605 112.41 46.5213 112.439 49.119Z" fill="url(#paint1_linear_1364_19872)"/>
<path fill-rule="evenodd" clip-rule="evenodd" d="M110.824 46.1422C113.987 44.733 117.54 44.4578 120.882 45.3628C124.225 46.2679 127.153 48.2979 129.173 51.1106C131.193 53.9232 132.182 57.3464 131.972 60.803C131.762 64.2595 130.366 67.5379 128.02 70.0853C130.333 71.422 132.249 73.3502 133.57 75.6719C134.891 77.9936 135.571 80.6252 135.539 83.2963C135.507 85.9675 134.765 88.5821 133.388 90.8715C132.012 93.161 130.051 95.0428 127.707 96.3238L125.028 97.756C125.028 97.756 128.412 98.1692 130.926 102.765C134.913 110.054 131.504 119.407 124.216 123.394L92.1032 140.96C91.9621 141.063 91.8143 141.156 91.6609 141.239C76.6187 149.467 61.9786 150.101 49.4669 145.627C37.0534 141.182 27.0375 131.821 20.8469 120.504C8.27329 97.5181 15.4695 74.0933 27.5089 53.518C29.8275 49.1733 32.2318 44.8748 34.7203 40.6251C43.5003 25.4651 65.2535 26.1096 73.5877 41.2952L88.5525 33.1092C90.8317 31.8626 93.3949 31.2273 95.9925 31.2649C98.5901 31.3025 101.134 32.0119 103.376 33.324C105.618 34.6361 107.483 36.5062 108.788 38.7524C110.093 40.9987 110.794 43.5445 110.824 46.1422Z" fill="url(#paint2_linear_1364_19872)"/>
<defs>
<filter id="filter0_f_1364_19872" x="0.0322266" y="142.884" width="197.531" height="84.4071" filterUnits="userSpaceOnUse" color-interpolation-filters="sRGB">
<feFlood flood-opacity="0" result="BackgroundImageFix"/>
<feBlend mode="normal" in="SourceGraphic" in2="BackgroundImageFix" result="shape"/>
<feGaussianBlur stdDeviation="15" result="effect1_foregroundBlur_1364_19872"/>
</filter>
<linearGradient id="paint0_linear_1364_19872" x1="120.097" y1="5.31867" x2="86.4812" y2="133.154" gradientUnits="userSpaceOnUse">
<stop stop-color="#81FFFF"/>
<stop offset="1" stop-color="#8DDD9F"/>
</linearGradient>
<linearGradient id="paint1_linear_1364_19872" x1="-16.0802" y1="50.7224" x2="196.32" y2="142.211" gradientUnits="userSpaceOnUse">
<stop stop-color="#587E9B"/>
<stop offset="1" stop-color="#434595"/>
</linearGradient>
<linearGradient id="paint2_linear_1364_19872" x1="51.4229" y1="30.9414" x2="116.318" y2="118.075" gradientUnits="userSpaceOnUse">
<stop stop-color="#8DC4EB"/>
<stop offset="1" stop-color="#6363DB"/>
</linearGradient>
</defs>
</svg>
