<svg width="1024" height="1024" viewBox="0 0 1024 1024" fill="none" xmlns="http://www.w3.org/2000/svg">
<rect width="1024" height="1024" fill="white"/>
<path fill-rule="evenodd" clip-rule="evenodd" d="M504.389 613.886C403.439 563.352 348.963 457.294 380.656 361.854C415.991 255.445 545.06 202.531 668.939 243.668C767.227 276.307 832.718 358.344 837.933 443.994L847.911 441.247C847.911 441.247 877.039 676.244 760.737 718.427C686.535 745.34 575.242 671.136 504.389 613.886ZM708.403 479.657L702.695 481.228C679.178 515.618 628.318 530.52 577.734 515.633L559.439 520.67C510.847 497.052 484.463 446.389 499.588 400.841C516.295 350.53 577.321 325.511 635.893 344.961C694.465 364.411 728.403 420.964 711.696 471.276C710.74 474.153 709.64 476.948 708.403 479.657Z" fill="#91C690"/>
<path fill-rule="evenodd" clip-rule="evenodd" d="M448.052 532.399C385.448 477.912 355.613 399.502 378.003 326.753C410.427 221.403 540.095 167.819 667.624 207.069C769.385 238.388 839.036 319.352 846.555 404.316L846.557 404.316C846.557 404.316 884.993 642.529 770.561 688.599C656.128 734.67 447.969 532.426 447.969 532.426L448.052 532.399ZM609.076 493.202C637.29 495.922 664.137 489.442 684.614 475.829C695.717 468.447 704.948 458.968 711.508 447.722L711.509 447.722C714.521 442.557 716.971 437.019 718.78 431.141C734.111 381.33 697.658 325.906 637.36 307.348C577.063 288.79 515.754 314.126 500.423 363.936C485.093 413.747 521.546 469.171 581.843 487.729C590.952 490.533 600.083 492.334 609.076 493.202Z" fill="url(#paint0_linear_368_2)"/>
<path fill-rule="evenodd" clip-rule="evenodd" d="M592.792 394.408C605.685 388.664 612.548 391.473 626.171 395.162C639.795 398.851 657.151 398.677 665.385 410.141C673.618 421.605 675.811 438.435 674.955 452.524C674.099 466.612 664.826 485.545 655.265 495.928C664.693 501.376 676.768 501.564 682.154 511.027C687.539 520.49 689.185 536.621 689.054 547.508C688.924 558.395 682.755 571.318 677.145 580.65C671.534 589.981 663.541 597.651 653.987 602.873L643.07 608.71C643.07 608.71 660.899 602.713 671.147 621.447C687.397 651.154 669.466 696.958 639.758 713.209L508.871 784.807C508.296 785.224 507.694 785.604 507.068 785.942C445.758 819.48 386.087 822.064 335.091 803.829C284.494 785.711 243.671 747.554 218.439 701.428C167.19 607.741 196.521 512.264 245.592 428.401C255.043 410.693 264.842 393.173 274.985 375.851C310.771 314.061 399.435 316.688 433.404 378.582L494.399 345.217C503.689 340.137 514.136 337.547 524.723 337.7C535.311 337.854 547.904 325.422 557.043 330.77C566.182 336.118 579.244 345.01 585.655 357.298C590.975 366.454 592.671 383.82 592.792 394.408Z" fill="url(#paint1_linear_368_2)"/>
<path fill-rule="evenodd" clip-rule="evenodd" d="M586.208 382.275C599.101 376.531 613.581 375.409 627.204 379.098C640.828 382.787 652.763 391.061 660.997 402.525C669.23 413.989 673.259 427.942 672.403 442.031C671.547 456.119 665.859 469.481 656.298 479.864C665.726 485.312 673.533 493.171 678.918 502.634C684.304 512.097 687.074 522.823 686.944 533.711C686.814 544.598 683.788 555.255 678.178 564.586C672.567 573.918 664.574 581.588 655.02 586.809L644.103 592.647C644.103 592.647 657.893 594.331 668.141 613.065C684.392 642.773 670.499 680.895 640.791 697.146L509.904 768.743C509.329 769.161 508.727 769.54 508.101 769.879C446.791 803.416 387.12 806 336.124 787.765C285.527 769.648 244.704 731.491 219.472 685.365C168.223 591.677 197.554 496.2 246.625 412.338C256.076 394.629 265.875 377.109 276.018 359.788C311.804 297.997 400.468 300.624 434.437 362.519L495.432 329.154C504.722 324.073 515.169 321.483 525.757 321.637C536.344 321.79 546.712 324.681 555.851 330.029C564.99 335.377 572.589 343 577.908 352.155C583.228 361.31 586.088 371.687 586.208 382.275Z" fill="url(#paint2_linear_368_2)"/>
<defs>
<linearGradient id="paint0_linear_368_2" x1="685.945" y1="212.708" x2="552.272" y2="647.03" gradientUnits="userSpaceOnUse">
<stop stop-color="#81FFFF"/>
<stop offset="1" stop-color="#8DDD9F"/>
</linearGradient>
<linearGradient id="paint1_linear_368_2" x1="356.322" y1="213.804" x2="460.223" y2="911.802" gradientUnits="userSpaceOnUse">
<stop stop-color="#587E9B"/>
<stop offset="1" stop-color="#434595"/>
</linearGradient>
<linearGradient id="paint2_linear_368_2" x1="344.096" y1="320.318" x2="608.602" y2="675.465" gradientUnits="userSpaceOnUse">
<stop stop-color="#8DC4EB"/>
<stop offset="1" stop-color="#6363DB"/>
</linearGradient>
</defs>
</svg>
