<svg width="12" height="12" viewBox="0 0 12 12" fill="none" xmlns="http://www.w3.org/2000/svg">
<path d="M10.9535 2.81112C10.9845 2.91512 11 3.02312 11 3.13162V8.87012C10.9999 9.04522 10.959 9.21789 10.8805 9.37439C10.8019 9.53089 10.6879 9.66689 10.5476 9.77157C10.4072 9.87625 10.2443 9.94672 10.0719 9.97737C9.89952 10.008 9.72235 9.998 9.5545 9.94812L6.7975 9.12812C6.60235 9.52612 6.28056 9.84806 5.88265 10.0434C5.48474 10.2387 5.03323 10.2964 4.59899 10.2074C4.16475 10.1184 3.77236 9.8877 3.48341 9.55154C3.19446 9.21539 3.0253 8.7928 3.0025 8.35012L3 8.25012L2.9995 8.00012L1.8045 7.64462C1.57201 7.57552 1.36807 7.43314 1.2231 7.23869C1.07812 7.04425 0.999867 6.80816 1 6.56562V5.43512C1.00011 5.19268 1.07854 4.95677 1.2236 4.76252C1.36865 4.56827 1.57258 4.42608 1.805 4.35712L9.555 2.05412C9.8409 1.96922 10.1488 2.00132 10.4111 2.14336C10.6733 2.28541 10.8684 2.52527 10.9535 2.81112ZM3.7495 8.22262L3.75 8.24962C3.74974 8.52147 3.8381 8.786 4.00171 9.00311C4.16531 9.22022 4.39524 9.37807 4.65663 9.45275C4.91803 9.52742 5.19664 9.51485 5.45024 9.41693C5.70385 9.31901 5.91862 9.14108 6.062 8.91012L3.7495 8.22262Z" fill="white"/>
</svg>
